<svg width="40" height="26" viewBox="0 0 40 26" fill="none" xmlns="http://www.w3.org/2000/svg">
<path d="M39.9994 13.3922C39.9994 13.3847 39.999 13.3773 39.9989 13.3698C39.9879 12.8714 39.5854 12.4742 39.0781 12.4742H38.8363L35.1022 5.29493C34.9447 4.99179 34.6305 4.80303 34.2836 4.80294L27.9085 4.80162L28.1517 2.88447C28.2211 2.11833 27.9829 1.39493 27.4809 0.847389C26.9798 0.300978 26.2802 0 25.5108 0H5.72466C5.22717 0 4.80456 0.38279 4.75713 0.876292L4.5588 2.45584H15.832C16.5639 2.45584 17.1418 3.04593 17.1227 3.77385C17.1035 4.50177 16.4946 5.09187 15.7626 5.09187H12.0023C12.003 5.09375 12.0037 5.09563 12.0043 5.09742H0.962178C0.44452 5.09742 0.0138648 5.51467 0.000326922 6.02945C-0.0132109 6.54422 0.395386 6.96147 0.913044 6.96147H15.5317C16.2103 7.06541 16.7172 7.649 16.6986 8.35555C16.6781 9.13149 16.0322 9.76065 15.2532 9.76715H5.17482C4.65195 9.76715 4.21704 10.1886 4.20331 10.7086C4.18958 11.2285 4.60235 11.65 5.12521 11.65H15.0849C15.7734 11.7454 16.2905 12.3337 16.2718 13.0471C16.2513 13.827 15.5988 14.4593 14.8145 14.4593H3.38848V14.4603H2.42843C1.90557 14.4603 1.47065 14.8818 1.45692 15.4018C1.4432 15.9217 1.85587 16.3432 2.37882 16.3432H3.20738L2.88332 19.7152C2.81383 20.4813 3.05203 21.2047 3.55416 21.7522C4.05515 22.2987 4.75486 22.5996 5.52425 22.5996H6.23901C6.57963 24.5365 8.26476 26 10.326 26C12.3873 26 14.1495 24.5365 14.5919 22.5997H23.5116C24.2328 22.5997 24.9156 22.3255 25.451 21.8765C25.9407 22.3438 26.5897 22.5997 27.2984 22.5997H27.4452C27.7857 24.5365 29.4708 26 31.5322 26C33.5934 26 35.3556 24.5365 35.798 22.5997H36.3868C37.9205 22.5997 39.2808 21.3597 39.419 19.8356L39.9959 13.4804C39.9967 13.4718 39.9963 13.4633 39.9968 13.4547C39.9978 13.4416 39.9996 13.4288 40 13.4156C40.0002 13.4077 39.9994 13.4001 39.9994 13.3922ZM10.3756 24.1171C9.0706 24.1171 8.03661 23.0614 8.07078 21.7636C8.10496 20.4658 9.19452 19.4099 10.4996 19.4099C11.8046 19.4099 12.8385 20.4658 12.8043 21.7636C12.7701 23.0614 11.6807 24.1171 10.3756 24.1171ZM31.5818 24.1171C30.2768 24.1171 29.2429 23.0614 29.2769 21.7636C29.3111 20.4658 30.4007 19.4099 31.7057 19.4099C33.0107 19.4099 34.0447 20.4658 34.0105 21.7636C33.9763 23.0614 32.8868 24.1171 31.5818 24.1171ZM37.5328 19.7152C37.4835 20.2582 36.9815 20.7168 36.4365 20.7168H35.7996C35.378 18.8855 33.7411 17.5271 31.7552 17.5271C29.7693 17.5271 28.061 18.8855 27.543 20.7168H27.348C27.1074 20.7168 26.8927 20.6271 26.7432 20.4641C26.5928 20.3001 26.5219 20.0768 26.5438 19.8356L27.7375 6.6845L30.4791 6.68506L30.0445 11.4725C29.9749 12.2385 30.213 12.9619 30.7151 13.5095C31.2161 14.0561 31.916 14.3571 32.6855 14.3571H38.019L37.5328 19.7152Z" fill="url(#paint0_linear)"/>
<defs>
<linearGradient id="paint0_linear" x1="20" y1="0" x2="20" y2="33.9144" gradientUnits="userSpaceOnUse">
<stop stop-color="#C7AE96"/>
<stop offset="1" stop-color="#C7AE96" stop-opacity="0"/>
</linearGradient>
</defs>
</svg>
