<svg width="58" height="67" viewBox="0 0 58 67" fill="none" xmlns="http://www.w3.org/2000/svg">
<path d="M8.4939 49.0784C-2.8313 37.8511 -2.8313 19.6479 8.4939 8.42053C19.8191 -2.80684 38.1809 -2.80684 49.5061 8.42053C60.8313 19.6479 60.8313 37.8511 49.5061 49.0784C38.1809 60.3058 19.8191 60.3058 8.4939 49.0784Z" fill="#C7AE96"/>
<path d="M35.7527 56.8046H22.2469C25.593 56.8046 28.3706 61.2137 28.9064 67H29.0932C29.629 61.2137 32.4067 56.8046 35.7527 56.8046Z" fill="#C7AE96"/>
<path d="M44.9589 22.7229C45.3812 18.6303 42.4389 16.4409 40.824 15.855C40.4659 15.7248 40.0249 15.8454 39.8477 16.183C39.6748 16.5123 39.7256 16.8845 40.0164 17.1078C40.1004 17.2418 40.4903 17.9816 40.3844 20.0231C40.3647 20.4012 40.3124 21.4059 38.2602 21.406C38.0358 21.406 37.8294 21.3923 37.6609 21.3757C37.5148 21.0709 37.2754 20.6715 36.9096 20.1159C36.3017 19.1929 35.3491 18.705 34.1544 18.705C33.4635 18.705 32.6871 18.8815 32.0244 19.1892C31.3157 19.5183 29.6565 19.7149 28.9997 19.7704C28.3429 19.715 26.6839 19.5184 25.9753 19.1892C25.3125 18.8815 24.5362 18.705 23.8452 18.705C22.6506 18.705 21.6979 19.1929 21.0901 20.1159C20.7244 20.6715 20.4848 21.0709 20.3387 21.3755C20.1702 21.3923 19.9637 21.406 19.7392 21.406C17.6873 21.406 17.6349 20.4012 17.6153 20.0231C17.5093 17.9816 17.8992 17.2418 17.9832 17.1078C18.2741 16.8844 18.3248 16.5123 18.1519 16.183C17.9747 15.8456 17.534 15.7248 17.1756 15.855C15.561 16.4409 12.6187 18.6305 13.041 22.723C13.3333 25.5555 14.599 26.6943 15.6812 27.1448C14.8048 27.9835 13.8645 29.1056 13.8373 30.0784C13.8187 30.7487 13.9941 31.2787 14.3586 31.6533C14.7444 32.0501 15.3013 32.2429 16.0607 32.2429C16.4061 32.2429 16.8026 32.2039 17.2729 32.1238C18.352 31.9403 19.4182 31.6758 20.0874 31.4969C20.4407 32.4578 21.116 34.2388 21.6936 35.4468C22.3082 36.7321 22.6085 37.9414 22.6957 38.3307C22.5801 39.0348 22.2896 41.5226 23.6607 42.8936C24.7372 43.9702 26.8605 44.1962 28.4523 44.1962C28.721 44.1962 28.9165 44.1886 28.9999 44.1847C29.0835 44.1886 29.279 44.1962 29.5475 44.1962C31.1393 44.1962 33.2628 43.9702 34.3392 42.8936C35.7103 41.5226 35.4198 39.0349 35.3042 38.3307C35.3916 37.9406 35.6917 36.7318 36.3063 35.4468C36.884 34.2388 37.5592 32.4576 37.9125 31.4969C38.5817 31.6758 39.648 31.9402 40.727 32.1238C41.1973 32.2039 41.594 32.2429 41.9392 32.2429C42.6988 32.2429 43.2556 32.05 43.6414 31.6533C44.0058 31.2787 44.1812 30.7487 44.1626 30.0782C44.1355 29.1056 43.1952 27.9835 42.3188 27.1448C43.401 26.6943 44.6666 25.5556 44.9589 22.7229ZM22.0046 29.49C22.0046 28.8604 22.2884 28.2745 22.7832 27.8826C23.0713 27.6541 23.4814 27.6642 23.7586 27.9061L25.6649 29.5725C25.9417 29.8147 26.0064 30.2199 25.8187 30.536C25.4502 31.1559 24.7747 31.5411 24.0557 31.5411C22.9247 31.5413 22.0046 30.6209 22.0046 29.49ZM25.881 42.0811C25.7439 42.1344 25.6 42.1614 25.4534 42.1614C24.7535 42.1614 24.1421 41.553 23.9321 40.6471C23.6909 39.6065 24.0535 38.6423 24.7943 38.3545C24.9317 38.301 25.0757 38.2741 25.2219 38.2741C25.9219 38.2741 26.5333 38.8826 26.7433 39.7883C26.9845 40.8291 26.6219 41.7933 25.881 42.0811ZM34.0899 40.6473C33.8799 41.5528 33.2686 42.1616 32.5686 42.1616C32.5686 42.1616 32.5686 42.1616 32.5685 42.1616C32.4221 42.1614 32.2783 42.1344 32.1409 42.0811C31.4002 41.7934 31.0375 40.8292 31.2788 39.7884C31.4888 38.8829 32.1001 38.2743 32.8001 38.2743C32.9463 38.2743 33.0902 38.3013 33.2276 38.3545C33.9685 38.6423 34.3312 39.6065 34.0899 40.6473ZM33.9443 31.5413C33.2253 31.5413 32.5497 31.1562 32.1813 30.5362C31.9935 30.22 32.0581 29.8149 32.335 29.5727L34.2413 27.9062C34.5184 27.6643 34.9285 27.6543 35.2167 27.8827C35.7116 28.2746 35.9954 28.8605 35.9954 29.4902C35.9954 30.6209 35.0752 31.5413 33.9443 31.5413Z" fill="#111112"/>
</svg>
