<svg width="64" height="42" viewBox="0 0 64 42" fill="none" xmlns="http://www.w3.org/2000/svg">
<path fill-rule="evenodd" clip-rule="evenodd" d="M33.9932 14.2185C33.9746 12.3263 34.3558 10.4518 35.1114 8.72017C35.8669 6.98848 36.9795 5.43941 38.3748 4.17631C39.6932 2.83337 41.2655 1.7718 42.9983 1.05469C44.7311 0.33758 46.5889 -0.020433 48.4614 0.00194032C53.2404 0.00194074 57.0464 1.74174 59.8795 5.22132C62.6548 8.52805 64.1198 12.7551 63.9923 17.0878C63.9923 25.6972 56.5594 34.0012 41.6935 42L39.5687 38.7398C44.6127 34.6481 47.1349 31.3443 47.1355 28.8284C47.1355 28.0435 46.0737 27.2604 43.9503 26.4792C40.7616 25.3486 38.5931 24.2621 37.4447 23.2198C35.1438 21.3042 33.9932 18.3038 33.9932 14.2185ZM0.00206618 14.2185C-0.0297215 12.3611 0.306266 10.516 0.990291 8.79153C1.67432 7.06705 2.69261 5.49793 3.98538 4.17631C5.32486 2.82424 6.91986 1.75795 8.67558 1.04084C10.4313 0.323722 12.3119 -0.0295799 14.2055 0.00193733C18.9829 0.00193775 22.7887 1.74174 25.6228 5.22132C28.4743 8.49157 29.9916 12.7322 29.8684 17.0878C29.8684 25.6971 22.4355 34.0012 7.56962 42L5.17931 38.7398C10.404 34.6481 13.0164 31.3443 13.0164 28.8284C13.0164 28.0434 11.8659 27.2604 9.56486 26.4792C6.46576 25.3486 4.34123 24.2621 3.19127 23.2198C1.06407 21.3042 0.000997708 18.3038 0.00206618 14.2185Z" fill="url(#paint0_linear)"/>
<defs>
<linearGradient id="paint0_linear" x1="32" y1="42" x2="32" y2="-12.7848" gradientUnits="userSpaceOnUse">
<stop stop-color="#C7AE96" stop-opacity="0"/>
<stop offset="0.666667" stop-color="#C7AE96"/>
<stop offset="1" stop-color="#C7AE96"/>
</linearGradient>
</defs>
</svg>
