<svg width="16" height="18" viewBox="0 0 16 18" fill="none" xmlns="http://www.w3.org/2000/svg">
<path fill-rule="evenodd" clip-rule="evenodd" d="M8 0C6.78759 0 5.62484 0.474106 4.76754 1.31802C3.91024 2.16193 3.42862 3.30653 3.42862 4.5V5.625H2.28577C2.00442 5.62498 1.73295 5.72712 1.52335 5.91187C1.31374 6.09661 1.18073 6.35098 1.14978 6.62625L0.00693538 16.7512C-0.0107409 16.9085 0.00546396 17.0676 0.0544925 17.2182C0.103521 17.3689 0.184271 17.5077 0.291471 17.6255C0.398671 17.7433 0.529912 17.8376 0.676626 17.9021C0.823341 17.9667 0.98223 18 1.14292 18H14.8571C15.0178 18 15.1767 17.9667 15.3234 17.9021C15.4701 17.8376 15.6013 17.7433 15.7085 17.6255C15.8157 17.5077 15.8965 17.3689 15.9455 17.2182C15.9945 17.0676 16.0107 16.9085 15.9931 16.7512L14.8502 6.62625C14.8193 6.35098 14.6863 6.09661 14.4767 5.91187C14.267 5.72712 13.9956 5.62498 13.7142 5.625H12.5714V4.5C12.5714 3.30653 12.0898 2.16193 11.2325 1.31802C10.3752 0.474106 9.21241 0 8 0ZM10.2857 5.625V4.5C10.2857 3.90326 10.0449 3.33097 9.61623 2.90901C9.18758 2.48705 8.6062 2.25 8 2.25C7.3938 2.25 6.81242 2.48705 6.38377 2.90901C5.95512 3.33097 5.71431 3.90326 5.71431 4.5V5.625H10.2857ZM3.42862 9C3.42862 8.70163 3.54902 8.41548 3.76335 8.2045C3.97767 7.99353 4.26836 7.875 4.57146 7.875C4.87456 7.875 5.16525 7.99353 5.37958 8.2045C5.5939 8.41548 5.71431 8.70163 5.71431 9C5.71431 9.29837 5.5939 9.58452 5.37958 9.7955C5.16525 10.0065 4.87456 10.125 4.57146 10.125C4.26836 10.125 3.97767 10.0065 3.76335 9.7955C3.54902 9.58452 3.42862 9.29837 3.42862 9ZM11.4285 7.875C11.1254 7.875 10.8347 7.99353 10.6204 8.2045C10.4061 8.41548 10.2857 8.70163 10.2857 9C10.2857 9.29837 10.4061 9.58452 10.6204 9.7955C10.8347 10.0065 11.1254 10.125 11.4285 10.125C11.7316 10.125 12.0223 10.0065 12.2367 9.7955C12.451 9.58452 12.5714 9.29837 12.5714 9C12.5714 8.70163 12.451 8.41548 12.2367 8.2045C12.0223 7.99353 11.7316 7.875 11.4285 7.875Z" fill="#C7AE96"/>
</svg>
