<svg width="23" height="14" viewBox="0 0 23 14" fill="none" xmlns="http://www.w3.org/2000/svg">
<path d="M22.9997 7.21116C22.9997 7.20716 22.9994 7.20315 22.9994 7.19915C22.9931 6.93073 22.7616 6.71686 22.4699 6.71686H22.3309L20.1838 2.85112C20.0932 2.68789 19.9125 2.58625 19.7131 2.5862L16.0474 2.58549L16.1872 1.55318C16.2271 1.14064 16.0902 0.751116 15.8015 0.456286C15.5134 0.162065 15.1111 0 14.6687 0H3.29168C3.00562 0 2.76262 0.206117 2.73535 0.47185L2.62131 1.32237H9.10337C9.52427 1.32237 9.85654 1.64012 9.84555 2.03207C9.8345 2.42403 9.48437 2.74177 9.06347 2.74177H6.90135C6.90173 2.74279 6.90211 2.7438 6.90249 2.74477H0.553252C0.255599 2.74477 0.00797225 2.96944 0.00018798 3.24662C-0.00759629 3.52381 0.227347 3.74848 0.525 3.74848H8.93071C9.3209 3.80445 9.6124 4.11869 9.60168 4.49914C9.58992 4.91695 9.2185 5.25574 8.77061 5.25923H2.97552C2.67487 5.25923 2.4248 5.48619 2.4169 5.76616C2.40901 6.04614 2.64635 6.27309 2.947 6.27309H8.67382C9.06973 6.32444 9.36706 6.64122 9.35628 7.02537C9.34447 7.44531 8.9693 7.78577 8.51836 7.78577H1.94838V7.78632H1.39635C1.0957 7.78632 0.845625 8.01328 0.837732 8.29325C0.829839 8.57323 1.06712 8.80018 1.36782 8.80018H1.84424L1.65791 10.6159C1.61796 11.0284 1.75491 11.4179 2.04364 11.7127C2.33171 12.007 2.73405 12.169 3.17644 12.169H3.58743C3.78329 13.212 4.75224 14 5.93746 14C7.12269 14 8.13595 13.212 8.39032 12.1691H13.5192C13.9339 12.1691 14.3265 12.0214 14.6343 11.7797C14.9159 12.0313 15.2891 12.1691 15.6966 12.1691H15.781C15.9768 13.212 16.9457 14 18.131 14C19.3162 14 20.3295 13.212 20.5839 12.1691H20.9224C21.8043 12.1691 22.5864 11.5014 22.6659 10.6807L22.9976 7.25866C22.9981 7.25405 22.9979 7.24949 22.9982 7.24482C22.9987 7.23777 22.9998 7.23088 23 7.22378C23.0001 7.21953 22.9997 7.21542 22.9997 7.21116ZM5.96599 12.9861C5.21559 12.9861 4.62105 12.4177 4.6407 11.7189C4.66035 11.02 5.28685 10.4515 6.03724 10.4515C6.78764 10.4515 7.38213 11.02 7.36247 11.7189C7.34282 12.4177 6.71638 12.9861 5.96599 12.9861ZM18.1595 12.9861C17.4091 12.9861 16.8146 12.4177 16.8342 11.7189C16.8539 11.02 17.4804 10.4515 18.2308 10.4515C18.9812 10.4515 19.5757 11.02 19.556 11.7189C19.5364 12.4177 18.9099 12.9861 18.1595 12.9861ZM21.5813 10.6159C21.553 10.9082 21.2644 11.1552 20.951 11.1552H20.5848C20.3423 10.1691 19.4011 9.43764 18.2593 9.43764C17.1174 9.43764 16.1351 10.1691 15.8372 11.1552H15.7251C15.5867 11.1552 15.4633 11.1069 15.3773 11.0191C15.2908 10.9308 15.2501 10.8106 15.2627 10.6807L15.9491 3.59935L17.5255 3.59965L17.2756 6.17748C17.2356 6.58997 17.3725 6.9795 17.6612 7.27432C17.9492 7.56865 18.3517 7.73076 18.7941 7.73076H21.8609L21.5813 10.6159Z" fill="url(#paint0_linear)"/>
<defs>
<linearGradient id="paint0_linear" x1="11.5" y1="0" x2="11.5" y2="18.2616" gradientUnits="userSpaceOnUse">
<stop stop-color="#C7AE96"/>
<stop offset="1" stop-color="#C7AE96" stop-opacity="0"/>
</linearGradient>
</defs>
</svg>
