<svg width="13" height="14" viewBox="0 0 13 14" fill="none" xmlns="http://www.w3.org/2000/svg">
<path d="M12.6508 6.08932C12.6505 6.089 12.6502 6.08868 12.6499 6.08836L7.34639 0.377686C7.12033 0.134155 6.81978 0 6.50008 0C6.18038 0 5.87983 0.134048 5.65367 0.377579L0.352939 6.08537C0.351154 6.0873 0.349368 6.08932 0.347583 6.09125C-0.116637 6.59401 -0.115843 7.40973 0.349864 7.91121C0.562632 8.14043 0.843643 8.27319 1.1441 8.28708C1.1563 8.28836 1.1686 8.289 1.181 8.289H1.39237V12.4917C1.39237 13.3233 2.02076 14 2.79327 14H4.86817C5.07846 14 5.24907 13.8164 5.24907 13.5898V10.2949C5.24907 9.91542 5.53573 9.60674 5.88816 9.60674H7.112C7.46443 9.60674 7.75109 9.91542 7.75109 10.2949V13.5898C7.75109 13.8164 7.9216 14 8.13199 14H10.2069C10.9794 14 11.6078 13.3233 11.6078 12.4917V8.289H11.8038C12.1234 8.289 12.4239 8.15495 12.6502 7.91142C13.1164 7.40909 13.1166 6.59198 12.6508 6.08932Z" fill="#C7AE96"/>
</svg>
