<svg width="20" height="20" viewBox="0 0 20 20" fill="none" xmlns="http://www.w3.org/2000/svg">
<path d="M7.00073 9.99988C7.00073 8.34302 8.34351 6.99952 10.0004 6.99952C11.6572 6.99952 13.0007 8.34302 13.0007 9.99988C13.0007 11.6567 11.6572 13.0002 10.0004 13.0002C8.34351 13.0002 7.00073 11.6567 7.00073 9.99988ZM5.37879 9.99988C5.37879 12.5524 7.44787 14.6215 10.0004 14.6215C12.5529 14.6215 14.622 12.5524 14.622 9.99988C14.622 7.44738 12.5529 5.3783 10.0004 5.3783C7.44787 5.3783 5.37879 7.44738 5.37879 9.99988ZM13.7249 5.19505C13.7248 5.40866 13.788 5.61751 13.9066 5.79517C14.0253 5.97283 14.1939 6.11132 14.3912 6.19315C14.5885 6.27497 14.8057 6.29645 15.0152 6.25486C15.2247 6.21327 15.4172 6.11048 15.5683 5.9595C15.7194 5.80851 15.8224 5.61611 15.8641 5.40661C15.9059 5.19712 15.8846 4.97995 15.8029 4.78257C15.7212 4.58518 15.5829 4.41645 15.4053 4.2977C15.2277 4.17895 15.019 4.11553 14.8053 4.11544H14.8049C14.5186 4.11557 14.244 4.22935 14.0415 4.43177C13.839 4.6342 13.7251 4.90872 13.7249 5.19505ZM6.36422 17.326C5.48672 17.286 5.00977 17.1398 4.69282 17.0164C4.27261 16.8528 3.97279 16.6579 3.65756 16.3431C3.34233 16.0283 3.1472 15.7288 2.98433 15.3086C2.86077 14.9918 2.71461 14.5147 2.67472 13.6372C2.63108 12.6885 2.62237 12.4035 2.62237 9.99995C2.62237 7.59642 2.6318 7.31223 2.67472 6.36272C2.71468 5.48522 2.86192 5.00907 2.98433 4.69132C3.14792 4.27111 3.34276 3.97129 3.65756 3.65606C3.97235 3.34083 4.27189 3.1457 4.69282 2.98283C5.00963 2.85928 5.48672 2.71311 6.36422 2.67322C7.31293 2.62959 7.59792 2.62087 10.0004 2.62087C12.4028 2.62087 12.6881 2.63031 13.6376 2.67322C14.5151 2.71318 14.9913 2.86043 15.309 2.98283C15.7292 3.1457 16.029 3.34126 16.3443 3.65606C16.6595 3.97086 16.8539 4.27111 17.0175 4.69132C17.141 5.00813 17.2872 5.48522 17.3271 6.36272C17.3707 7.31223 17.3794 7.59642 17.3794 9.99995C17.3794 12.4035 17.3707 12.6877 17.3271 13.6372C17.2871 14.5147 17.1403 14.9916 17.0175 15.3086C16.8539 15.7288 16.6591 16.0286 16.3443 16.3431C16.0295 16.6576 15.7292 16.8528 15.309 17.0164C14.9922 17.1399 14.5151 17.2861 13.6376 17.326C12.6889 17.3696 12.4039 17.3783 10.0004 17.3783C7.59684 17.3783 7.31264 17.3696 6.36422 17.326ZM6.2897 1.05402C5.33155 1.09765 4.67683 1.24958 4.10506 1.47207C3.5129 1.70183 3.01162 2.01007 2.51069 2.51021C2.00977 3.01034 1.70232 3.51241 1.47256 4.10457C1.25007 4.6767 1.09814 5.33107 1.05451 6.28921C1.01015 7.24886 1 7.55567 1 9.99988C1 12.4441 1.01015 12.7509 1.05451 13.7106C1.09814 14.6688 1.25007 15.3231 1.47256 15.8952C1.70232 16.487 2.00984 16.9896 2.51069 17.4896C3.01155 17.9895 3.5129 18.2973 4.10506 18.5277C4.67791 18.7502 5.33155 18.9021 6.2897 18.9457C7.24986 18.9894 7.55616 19.0003 10.0004 19.0003C12.4446 19.0003 12.7514 18.9901 13.711 18.9457C14.6693 18.9021 15.3235 18.7502 15.8957 18.5277C16.4875 18.2973 16.9891 17.9897 17.49 17.4896C17.991 16.9894 18.2978 16.487 18.5282 15.8952C18.7507 15.3231 18.9033 14.6687 18.9462 13.7106C18.9899 12.7502 19 12.4441 19 9.99988C19 7.55567 18.9899 7.24886 18.9462 6.28921C18.9026 5.33099 18.7507 4.67634 18.5282 4.10457C18.2978 3.51277 17.9902 3.01113 17.49 2.51021C16.9899 2.00928 16.4875 1.70183 15.8964 1.47207C15.3235 1.24958 14.6692 1.09693 13.7118 1.05402C12.7521 1.01038 12.4453 0.999512 10.0011 0.999512C7.55688 0.999512 7.24986 1.00966 6.2897 1.05402Z" fill="#111112" stroke="#111112" stroke-width="0.787502"/>
</svg>
