<svg width="10" height="18" viewBox="0 0 10 18" fill="none" xmlns="http://www.w3.org/2000/svg">
<path d="M4.99987 2.97907C6.01721 2.97907 6.84474 3.8066 6.84474 4.82394C6.84474 5.84043 6.017 6.66796 4.99987 6.66796C3.98316 6.66796 3.15542 5.84043 3.15542 4.82394C3.15521 3.80638 3.98338 2.97907 4.99987 2.97907ZM4.99987 9.27807C7.45728 9.27807 9.45571 7.28028 9.45571 4.82394C9.45571 2.36632 7.45749 0.367676 4.99987 0.367676C2.54267 0.367676 0.544027 2.36653 0.544027 4.82394C0.544027 7.28028 2.54267 9.27807 4.99987 9.27807ZM6.80251 12.9126C7.71914 12.7038 8.5939 12.3416 9.3898 11.8413C9.68281 11.6569 9.89058 11.3637 9.96742 11.0262C10.0443 10.6886 9.98386 10.3344 9.79951 10.0414C9.70834 9.89617 9.58944 9.77035 9.4496 9.67111C9.30976 9.57187 9.15172 9.50118 8.98454 9.46307C8.81736 9.42495 8.6443 9.42017 8.47526 9.449C8.30623 9.47782 8.14454 9.53969 7.99943 9.63105C6.17397 10.7787 3.82448 10.7779 2.00051 9.63105C1.85543 9.53966 1.69376 9.47778 1.52473 9.44894C1.35571 9.42011 1.18266 9.42488 1.01549 9.463C0.848313 9.50111 0.690295 9.57182 0.550475 9.67107C0.410655 9.77032 0.291778 9.89616 0.200647 10.0414C0.0162466 10.3343 -0.0442489 10.6885 0.0324646 11.026C0.109178 11.3636 0.316818 11.6568 0.609717 11.8413C1.40556 12.3414 2.28014 12.7036 3.19659 12.9126L0.705693 15.4039C0.460907 15.6488 0.323421 15.9808 0.323481 16.3271C0.323541 16.6733 0.461141 17.0054 0.706013 17.2501C0.950884 17.4949 1.28297 17.6324 1.62921 17.6324C1.97545 17.6323 2.30748 17.4947 2.55227 17.2498L4.99944 14.8022L7.44811 17.25C7.56918 17.3713 7.71297 17.4675 7.87125 17.5331C8.02953 17.5987 8.19919 17.6325 8.37054 17.6325C8.54189 17.6325 8.71155 17.5987 8.86983 17.5331C9.02811 17.4675 9.1719 17.3713 9.29297 17.25C9.4144 17.129 9.51075 16.9851 9.57648 16.8268C9.64222 16.6684 9.67606 16.4986 9.67606 16.3272C9.67606 16.1557 9.64222 15.9859 9.57648 15.8276C9.51075 15.6692 9.4144 15.5254 9.29297 15.4043L6.80251 12.9126Z" fill="#111112"/>
</svg>
