<svg width="21" height="21" viewBox="0 0 21 21" fill="none" xmlns="http://www.w3.org/2000/svg">
<path d="M19.1653 7.35192C19.8507 5.81717 19.5646 3.954 18.3053 2.69466C17.0459 1.43532 15.1828 1.14931 13.648 1.83458L11.8134 0L0 11.8134L1.83462 13.648C1.14927 15.1828 1.43536 17.046 2.6947 18.3053C3.95404 19.5646 5.81717 19.8506 7.35196 19.1654L9.18658 21L21 9.18663L19.1653 7.35192ZM8.08465 11.6016C7.5125 12.1737 6.58484 12.1737 6.01269 11.6016C5.44054 11.0294 5.44054 10.1018 6.01269 9.52962C6.58484 8.95747 7.5125 8.95747 8.08465 9.52962C8.65684 10.1018 8.65684 11.0294 8.08465 11.6016ZM10.3393 15.4493L9.29874 5.69587L10.6606 5.55057L11.7011 15.3041L10.3393 15.4493ZM14.9955 11.4786C14.4234 12.0508 13.4957 12.0508 12.9236 11.4786C12.3514 10.9065 12.3514 9.9788 12.9236 9.40664C13.4957 8.83449 14.4234 8.83449 14.9955 9.40664C15.5677 9.9788 15.5677 10.9065 14.9955 11.4786Z" fill="url(#paint0_linear)"/>
<defs>
<linearGradient id="paint0_linear" x1="10.5" y1="0" x2="10.5" y2="27.3924" gradientUnits="userSpaceOnUse">
<stop stop-color="#C7AE96"/>
<stop offset="1" stop-color="#C7AE96" stop-opacity="0"/>
</linearGradient>
</defs>
</svg>
