<svg width="18" height="11" viewBox="0 0 18 11" fill="none" xmlns="http://www.w3.org/2000/svg">
<path fill-rule="evenodd" clip-rule="evenodd" d="M17.587 0.847361C17.7122 0.43017 17.587 0.123535 16.9915 0.123535H15.0223C14.5215 0.123535 14.2908 0.388394 14.1657 0.68054C14.1657 0.68054 13.1642 3.12138 11.7455 4.70687C11.2865 5.16584 11.0779 5.3117 10.8276 5.3117C10.7024 5.3117 10.5212 5.16584 10.5212 4.74865V0.847361C10.5212 0.346619 10.3759 0.123535 9.95858 0.123535H6.8641C6.55128 0.123535 6.36308 0.355902 6.36308 0.576172C6.36308 1.05089 7.07228 1.16032 7.14542 2.49545V5.39539C7.14542 6.03117 7.03064 6.1465 6.78027 6.1465C6.11271 6.1465 4.48895 3.69456 3.52573 0.889136C3.33697 0.343805 3.14764 0.123535 2.64437 0.123535H0.675158C0.112526 0.123535 0 0.388394 0 0.68054C0 1.2021 0.667702 3.78908 3.10854 7.21044C4.73595 9.54677 7.02839 10.8135 9.11463 10.8135C10.3665 10.8135 10.5212 10.5322 10.5212 10.0476V8.28169C10.5212 7.71906 10.6398 7.60681 11.036 7.60681C11.3283 7.60681 11.8289 7.75282 12.9973 8.87934C14.3325 10.2143 14.5525 10.8135 15.3036 10.8135H17.2728C17.8354 10.8135 18.1167 10.5322 17.9544 9.97704C17.7769 9.42369 17.1394 8.6211 16.2935 7.66941C15.8346 7.12689 15.146 6.54274 14.9376 6.25073C14.6454 5.87517 14.7288 5.70835 14.9376 5.37471C14.9376 5.37471 17.3366 1.99499 17.587 0.847502V0.847361Z" fill="#111112"/>
</svg>
