<?xml version="1.0" standalone="no"?>
<!DOCTYPE svg PUBLIC "-//W3C//DTD SVG 1.1//EN" "http://www.w3.org/Graphics/SVG/1.1/DTD/svg11.dtd">
<svg xmlns="http://www.w3.org/2000/svg">
<metadata>Copyright (C) 2021 by original authors @ fontello.com</metadata>
<defs>
<font id="fontello" horiz-adv-x="1000" >
<font-face font-family="fontello" font-weight="400" font-stretch="normal" units-per-em="1000" ascent="850" descent="-150" />
<missing-glyph horiz-adv-x="1000" />
<glyph glyph-name="location" unicode="&#xe802;" d="M0 473q0 156 110 267t267 110 267-110 110-267q0-123-53-193l-324-430-324 430q-53 70-53 193z m219 0q0-66 46-112t112-46 112 46 46 112-46 112-112 46-112-46-46-112z" horiz-adv-x="754" />

<glyph glyph-name="all" unicode="&#xe803;" d="M365 872q43 0 73-31t31-74l0-260q0-44-31-74t-73-30l-261 0q-44 0-74 30t-30 74l0 260q0 43 31 74t73 31l261 0z m0-365l0 260-261 0 0-260 261 0z m573 365q42 0 73-31t30-74l0-260q0-44-30-74t-73-30l-260 0q-44 0-75 30t-30 74l0 260q0 43 31 74t74 31l260 0z m0-365l0 260-260 0 0-260 260 0z m-573-209q43 0 73-30t31-74l0-260q0-44-31-74t-73-31l-261 0q-43 0-73 31t-31 74l0 260q0 44 30 74t74 30l261 0z m0-364l0 260-261 0 0-260 261 0z m573 364q42 0 73-30t30-74l0-260q0-44-30-74t-73-31l-260 0q-43 0-74 31t-31 74l0 260q0 43 30 73t75 31l260 0z m0-364l0 260-260 0 0-260 260 0z" horiz-adv-x="1041" />

<glyph glyph-name="cancel" unicode="&#xe80d;" d="M654 349l346-346-154-154-346 346-346-346-154 154 346 346-346 346 154 154 346-346 346 346 154-154z" horiz-adv-x="1000" />

<glyph glyph-name="th-large" unicode="&#xe813;" d="M0 663q0 65 46 110t110 46l104 0q65 0 111-46t45-110l0-104q0-65-45-111t-111-45l-104 0q-65 0-110 45t-46 111l0 104z m521 0q0 65 46 110t111 46l103 0q65 0 111-46t46-110l0-104q0-65-46-111t-111-45l-103 0q-65 0-111 45t-46 111l0 104z m-521-521q0 65 46 110t110 46l104 0q65 0 111-46t45-110l0-104q0-65-45-111t-111-46l-104 0q-65 0-110 46t-46 111l0 104z m521 0q0 65 46 110t111 46l103 0q65 0 111-46t46-110l0-104q0-65-46-111t-111-46l-103 0q-65 0-111 46t-46 111l0 104z" horiz-adv-x="938" />

<glyph glyph-name="phone" unicode="&#xe815;" d="M0 788c0 16 7 32 18 44 12 11 28 18 45 18h134c15 0 29-5 41-15 11-9 18-23 21-37l46-277c2-14 0-27-6-39-6-12-16-22-28-28l-97-48c35-86 87-164 152-230 66-65 144-117 230-152l48 97c6 12 16 22 28 28 12 6 25 8 39 6l277-46c14-3 28-10 37-21 10-12 15-26 15-41v-135c0-16-7-32-18-44-12-11-28-18-44-18h-125c-449 0-813 364-813 813v125z" horiz-adv-x="1000" />

<glyph glyph-name="youtube" unicode="&#xe816;" d="M1188 788c58-15 103-60 118-117 28-105 27-322 27-322 0 0 0-216-27-321-15-57-60-102-118-117-104-28-521-28-521-28 0 0-417 0-522 29-57 15-102 60-117 117-28 104-28 321-28 321 0 0 0 216 28 321 15 57 61 103 117 118 104 28 522 28 522 28 0 0 417 0 521-29z m-307-438l-347-200v400l347-200z" horiz-adv-x="1333" />

<glyph glyph-name="cart" unicode="&#xe817;" d="M444 850c-67 0-131-26-179-73-48-47-74-111-74-177v-62h-64c-16 0-31-6-42-16-12-11-19-25-21-40l-64-563c-1-8 0-17 3-26 3-8 7-16 13-22 6-7 13-12 22-16 8-3 17-5 26-5h761c9 0 18 2 26 5 9 4 16 9 22 16 6 6 10 14 13 22 3 9 4 18 3 26l-64 563c-2 15-9 29-21 40-11 10-26 16-42 16h-64v62c0 66-26 130-74 177-48 47-112 73-180 73z m127-312v62c0 33-13 65-37 88-24 24-56 37-90 37-33 0-65-13-89-37-24-23-37-55-37-88v-62h253z m-380-188c0 17 6 33 18 44 12 12 28 19 45 19 17 0 33-7 45-19 12-11 19-27 19-44 0-17-7-32-19-44-12-12-28-18-45-18-17 0-33 6-45 18-12 12-18 27-18 44z m444 63c-17 0-33-7-45-19-12-11-19-27-19-44 0-17 7-32 19-44 12-12 28-18 45-18 17 0 33 6 45 18 12 12 18 27 18 44 0 17-6 33-18 44-12 12-28 19-45 19z" horiz-adv-x="889" />

<glyph glyph-name="check" unicode="&#xe818;" d="M957 778l163-163-697-697-389 389 163 163 226-226 534 534z" horiz-adv-x="1154" />

<glyph glyph-name="clock" unicode="&#xe819;" d="M500-150c133 0 260 53 354 146 93 94 146 221 146 354 0 133-53 260-146 354-94 93-221 146-354 146-133 0-260-53-354-146-93-94-146-221-146-354 0-133 53-260 146-354 94-93 221-146 354-146z m63 750c0 17-7 33-19 44-11 12-27 19-44 19-17 0-32-7-44-19-12-11-18-27-18-44v-250c0-17 6-32 18-44l177-177c5-6 12-10 20-14 7-3 16-4 24-4 8 0 16 1 24 4 7 4 14 8 20 14 6 6 10 13 14 20 3 8 4 16 4 24 0 8-1 17-4 24-4 8-8 15-14 20l-158 159v224z" horiz-adv-x="1000" />

<glyph glyph-name="delivery" unicode="&#xe81a;" d="M1643 335c0 0 0 1 0 1-1 19-17 34-38 34h-10l-153 276c-7 12-20 19-34 19l-262 0 10 74c3 30-7 57-27 78-21 21-50 33-81 33h-813c-20 0-38-15-40-34l-8-60h463c30 0 54-23 53-51 0-28-25-51-56-51h-154c0 0 0 0 0 0h-453c-22 0-39-16-40-36-1-20 16-36 38-36h600c28-4 49-26 48-53-1-30-27-54-59-55h-414c-22 0-40-16-40-36-1-20 16-36 38-36h409c28-4 49-26 48-54 0-30-27-54-59-54h-470v0h-39c-22 0-40-16-40-36-1-20 16-37 38-37h34l-14-129c-2-30 7-58 28-79 21-21 49-32 81-32h29c14-75 83-131 168-131 85 0 157 56 175 131h367c29 0 57 10 79 28 20-18 47-28 76-28h6c14-75 83-131 168-131 85 0 157 56 175 131h25c63 0 118 48 124 106l24 245c0 0 0 0 0 1 0 0 0 1 0 1 0 0 0 1 0 1z m-1217-413c-53 0-96 41-94 91 1 50 46 91 99 91 54 0 96-41 95-91-1-50-46-91-100-91z m871 0c-53 0-96 41-95 91 2 50 47 91 100 91 54 0 96-41 95-91-1-50-46-91-100-91z m245 170c-2-21-23-39-45-39h-27c-17 71-84 123-166 123-81 0-151-52-173-123h-8c-10 0-18 4-25 10-6 6-9 15-8 24l49 506 113 0-18-184c-3-30 7-57 28-79 20-21 49-32 80-32h220l-20-206z" horiz-adv-x="1643" />

<glyph glyph-name="fb" unicode="&#xe81b;" d="M328-122v431h145l21 167h-166v108c0 48 14 81 83 81l89 0v150c-15 2-68 7-129 7-129 0-216-78-216-222v-124h-145v-167h145v-431l173 0z" horiz-adv-x="500" />

<glyph glyph-name="home-icon" unicode="&#xe81c;" d="M904 415c0 0 0 0 0 0l-379 408c-16 17-38 27-61 27-22 0-44-10-60-27l-379-408c0 0 0 0 0 0-33-36-33-94 0-130 15-16 35-26 57-27 1 0 2 0 2 0h16v-300c0-60 44-108 100-108h148c15 0 27 13 27 29v236c0 27 20 49 46 49h87c25 0 46-22 46-49v-236c0-16 12-29 27-29h148c55 0 100 48 100 108v300h14c23 0 44 10 61 27 33 36 33 94 0 130z" horiz-adv-x="929" />

<glyph glyph-name="insta" unicode="&#xe81d;" d="M350 350c0 83 67 150 150 150 83 0 150-67 150-150 0-83-67-150-150-150-83 0-150 67-150 150z m-81 0c0-128 103-231 231-231 128 0 231 103 231 231 0 128-103 231-231 231-128 0-231-103-231-231z m417 240c0-10 3-21 9-30 6-9 15-16 25-20 9-4 20-5 31-3 10 2 20 8 27 15 8 8 13 17 15 28 2 10 1 21-3 31-4 10-11 18-20 24-9 6-19 9-30 9h0c-14 0-28-5-38-16-10-10-16-23-16-38z m-368-606c-44 2-67 9-83 15-21 8-36 18-52 34-16 16-26 31-34 52-6 15-13 39-15 83-2 48-3 62-3 182 0 120 1 134 3 182 2 44 9 68 15 83 8 21 18 36 34 52 16 16 31 26 52 34 16 6 39 13 83 15 48 3 62 3 182 3 120 0 134 0 182-3 44-2 68-9 83-15 22-8 37-18 52-34 16-15 26-31 34-52 6-15 13-39 15-83 3-48 3-62 3-182 0-120 0-134-3-182-2-44-9-68-15-83-8-21-18-36-34-52-15-16-30-26-52-34-15-6-39-13-83-15-48-3-62-3-182-3-120 0-134 0-182 3z m-3 813c-48-2-81-9-110-21-29-11-54-26-79-51-25-25-41-51-52-80-11-29-19-62-21-109-2-48-3-64-3-186 0-122 1-137 3-185 2-48 10-81 21-110 11-29 27-54 52-80 25-25 50-40 79-51 29-12 62-19 110-21 48-3 63-3 185-3 122 0 138 0 186 3 48 2 80 9 109 21 29 11 55 26 80 51 25 26 40 51 51 80 12 29 19 62 21 110 3 48 3 63 3 185 0 122 0 138-3 186-2 48-9 80-21 109-11 29-26 54-51 80-25 25-51 40-80 51-29 12-61 19-109 21-48 3-64 3-186 3-122 0-137 0-185-3z" horiz-adv-x="1000" />

<glyph glyph-name="like" unicode="&#xe81e;" d="M804 830c170 0 307-137 307-307 0-281-555-653-555-653 0 0-556 359-556 653 0 211 138 307 307 307 102 0 193-50 249-127 55 77 146 127 248 127z" horiz-adv-x="1111" />

<glyph glyph-name="location-1" unicode="&#xe81f;" d="M121 729c77 77 182 121 291 121 109 0 214-44 291-121 77-78 121-183 121-293 0-110-44-215-121-293l-291-293-291 293c-39 38-69 84-90 134-20 51-31 104-31 159 0 54 11 108 31 158 21 51 51 96 90 135z m291-412c31 0 61 13 83 35 22 22 34 52 34 84 0 31-12 61-34 84-22 22-52 34-83 34-31 0-61-12-83-34-22-23-35-53-35-84 0-32 13-62 35-84 22-22 52-35 83-35z" horiz-adv-x="824" />

<glyph glyph-name="ok" unicode="&#xe820;" d="M278 685c56 0 102-46 102-103 0-56-46-102-102-102-57 0-103 46-103 102 0 57 46 103 103 103z m0-350c136 0 247 111 247 247 0 137-111 248-247 248-137 0-248-111-248-248 0-136 111-247 248-247z m100-202c51 11 99 31 144 59 16 10 28 27 32 45 4 19 1 39-10 55-5 8-11 15-19 21-8 5-17 9-26 11-9 2-19 3-28 1-9-1-18-5-27-10-101-64-231-64-333 0-8 5-17 9-26 10-10 2-19 1-29-1-9-2-18-6-25-11-8-6-15-13-20-21-10-16-14-36-9-55 4-18 16-35 32-45 44-28 93-48 144-59l-139-139c-13-13-21-32-21-51 0-19 8-38 21-51 14-14 32-22 52-22 19 0 37 8 51 22l136 136 136-136c7-7 15-12 23-16 9-4 19-6 28-6 10 0 19 2 28 6 9 4 17 9 23 16 7 6 12 14 16 23 4 9 6 18 6 28 0 9-2 19-6 28-4 8-9 16-16 23l-138 139z" horiz-adv-x="556" />

<glyph glyph-name="phone-1" unicode="&#xe821;" d="M0 788c0 16 7 32 18 44 12 11 28 18 45 18h134c15 0 29-5 41-15 11-9 18-23 21-37l46-277c2-14 0-27-6-39-6-12-16-22-28-28l-97-48c35-86 87-164 152-230 66-65 144-117 230-152l48 97c6 12 16 22 28 28 12 6 25 8 39 6l277-46c14-3 28-10 37-21 10-12 15-26 15-41v-135c0-16-7-32-18-44-12-11-28-18-44-18h-125c-449 0-813 364-813 813v125z" horiz-adv-x="1000" />

<glyph glyph-name="promo" unicode="&#xe822;" d="M913 500c32 73 19 162-41 222-60 60-149 73-222 41l-87 87-563-562 87-88c-32-73-19-162 41-222 60-60 149-73 222-41l88-87 562 563-87 87z m-528-202c-27-28-71-28-99 0-27 27-27 71 0 98 28 28 72 28 99 0 27-27 27-71 0-98z m107-184l-49 465 65 7 49-465-65-7z m222 189c-27-27-71-27-99 0-27 28-27 72 0 99 28 27 72 27 99 0 27-27 27-71 0-99z" horiz-adv-x="1000" />

<glyph glyph-name="quotes" unicode="&#xe823;" d="M809 512c0 45 9 89 27 130 18 42 45 79 78 109 31 32 69 57 110 74 41 17 85 26 130 25 114 0 204-41 272-124 66-79 101-180 98-283 0-205-177-403-531-593l-51 78c120 97 180 176 180 236 0 18-25 37-76 56-75 27-127 52-154 77-55 46-83 117-83 215z m-809 0c-1 44 7 88 24 129 16 41 40 78 71 110 32 32 70 57 112 74 41 17 86 26 131 25 114 0 205-41 272-124 68-78 104-179 101-283 0-205-177-403-531-593l-57 78c125 97 187 176 187 236 0 18-27 37-82 56-74 27-125 52-152 77-51 46-76 117-76 215z" horiz-adv-x="1524" />

<glyph glyph-name="search" unicode="&#xe824;" d="M985-57l-193 193c69 88 102 200 92 312-10 112-63 216-148 291-84 75-194 114-307 111-112-4-220-50-299-130-80-79-126-186-130-299-3-112 36-222 111-306 75-85 179-138 291-148 112-10 224 23 313 92l193-193c10-10 24-16 38-16 7 0 14 1 20 4 6 3 12 7 17 12 5 5 9 11 12 17 3 7 5 14 5 21 0 7-1 14-4 21-2 6-6 12-11 18v0z m-540 130c-66 0-130 20-185 56-55 37-97 89-123 150-25 60-31 127-18 192 12 64 44 123 91 170 46 46 105 78 170 91 64 13 131 6 192-19 61-25 113-68 149-123 37-54 57-118 57-184-1-88-36-173-98-235-62-62-147-97-235-98z" horiz-adv-x="1000" />

<glyph glyph-name="trash" unicode="&#xe825;" d="M509 38h45c6 0 12 2 16 6 4 5 7 11 7 17v422c0 6-3 12-7 16-4 5-10 7-16 7h-45c-7 0-12-2-17-7-4-4-6-10-6-16v-422c0-6 2-12 6-17 5-4 10-6 17-6z m311 656h-157l-64 111c-8 13-20 25-33 33-14 8-30 12-45 12h-192c-15 0-31-4-44-12-14-8-26-20-34-33l-64-111h-157c-8 0-15-3-21-9-6-6-9-14-9-22l0-32c0-8 3-16 9-22 6-6 13-9 21-9h31v-656c0-25 9-49 26-67 18-17 41-27 65-27h546c24 0 48 10 65 27 17 18 26 42 26 67v656h31c8 0 15 3 21 9 6 6 9 14 9 22v32c0 8-3 16-9 22-6 6-13 9-21 9z m-494 57c1 1 3 3 4 4 2 1 4 1 6 1h178c2 0 4 0 6-1 2-1 3-3 4-4l33-57h-264l33 57z m372-807h-546v656h546v-656z m-402 94h46c6 0 11 2 16 6 4 5 6 11 6 17v422c0 6-2 12-6 16-5 5-10 7-16 7h-46c-6 0-12-2-16-7-4-4-7-10-7-16v-422c0-6 3-12 7-17 4-4 10-6 16-6z" horiz-adv-x="850" />

<glyph glyph-name="vk" unicode="&#xe826;" d="M1599 773c11 38 0 66-54 66h-179c-46 0-67-24-78-51 0 0-91-222-220-366-42-42-61-55-84-55-11 0-27 13-27 51v355c0 46-14 66-52 66h-281c-28 0-45-21-45-41 0-43 64-53 71-175v-263c0-58-11-69-34-69-60 0-208 223-295 478-18 50-35 70-81 70h-179c-51 0-61-24-61-51 0-47 61-282 283-593 148-213 356-328 546-328 113 0 128 25 128 70v160c0 51 10 62 46 62 27 0 72-14 179-116 121-122 141-176 209-176h179c51 0 77 25 62 76-16 50-74 123-151 210-41 49-104 102-123 129-27 34-19 49 0 79 0 0 218 308 241 412v0z" horiz-adv-x="1636" />

<glyph glyph-name="menu" unicode="&#xf0c9;" d="M857 100v-71q0-15-10-25t-26-11h-785q-15 0-25 11t-11 25v71q0 15 11 25t25 11h785q15 0 26-11t10-25z m0 286v-72q0-14-10-25t-26-10h-785q-15 0-25 10t-11 25v72q0 14 11 25t25 10h785q15 0 26-10t10-25z m0 285v-71q0-14-10-25t-26-11h-785q-15 0-25 11t-11 25v71q0 15 11 26t25 10h785q15 0 26-10t10-26z" horiz-adv-x="857.1" />
</font>
</defs>
</svg>
