<svg width="44" height="53" viewBox="0 0 44 53" fill="none" xmlns="http://www.w3.org/2000/svg">
<path opacity="0.4" fill-rule="evenodd" clip-rule="evenodd" d="M36.6339 19.2907C38.3883 19.2907 40.0377 19.9689 41.2773 21.1896C42.5169 22.4207 43.1998 24.0482 43.1998 25.7801V40.7516C43.1998 44.3301 40.2583 47.2514 36.6339 47.2514H36.3082H36.0876L36.0981 47.4705L36.1191 47.9817C36.1717 49.3067 35.6884 50.5795 34.7534 51.5394C33.8395 52.4783 32.5893 53 31.2236 53H6.05253C4.68682 53 3.43667 52.4783 2.5332 51.5394C1.58771 50.5587 1.11497 49.338 1.1675 48.0026L2.42815 16.599V16.5156L2.37562 16.453C1.35659 15.2844 0.799805 13.7925 0.799805 12.2484C0.799805 9.03504 3.21606 6.29114 6.43073 5.86339L6.54629 5.85295L6.59881 5.74862C8.21665 2.25354 11.7675 0 15.6335 0C18.9322 0 22.0208 1.62756 23.8698 4.34016L23.9748 4.48622L24.1324 4.41319C25.288 3.89154 26.5171 3.62028 27.7883 3.62028C32.5788 3.62028 36.4763 7.50138 36.4763 12.2589C36.4763 13.6465 36.1401 15.0236 35.4888 16.2547C35.3522 16.5051 35.1736 16.7242 34.953 16.8911L34.869 16.9537V17.0581L34.953 19.0925L34.9635 19.2907H35.1631H36.6339ZM31.2236 49.2024C31.5388 49.2024 31.8329 49.098 32.001 48.9207C32.106 48.8163 32.3162 48.5972 32.3057 48.1695L31.0765 17.5171L31.066 17.3189H30.8664H28.6287H28.5237L28.4607 17.4024C26.6327 19.7707 23.9538 21.3043 21.1173 21.6173C20.8652 21.6486 20.6131 21.6486 20.403 21.6486H20.1824H19.9617C19.489 21.6486 19.0163 21.6173 18.5435 21.5547L18.3019 21.5234V21.7634V25.1228C18.3019 26.1661 17.4404 27.0217 16.3899 27.0217C15.3393 27.0217 14.4779 26.1661 14.4779 25.1228V20.2402V20.1254L14.3834 20.0628C13.9211 19.7707 13.4379 19.4577 12.9861 19.0612C12.3873 18.5291 11.8726 17.8614 11.5469 17.4128L11.4838 17.3293H11.3788H6.40972H6.21011L6.19961 17.5276L4.97047 48.1591C4.95996 48.5764 5.17007 48.7955 5.27513 48.8998C5.35917 48.9937 5.6113 49.2024 6.05253 49.2024H31.2236ZM32.5158 13.5421L32.5473 13.3648C32.6208 12.937 32.6523 12.6449 32.6523 12.3006C32.6523 9.60886 30.4672 7.42835 27.7778 7.42835C26.5592 7.42835 25.3931 7.86654 24.5001 8.68032C24.1534 8.99331 23.6912 9.17067 23.2184 9.17067C23.0609 9.17067 22.9033 9.1498 22.7457 9.10807C22.1259 8.95158 21.6216 8.49252 21.4115 7.8874C20.5606 5.44606 18.2283 3.79764 15.623 3.79764C12.8811 3.79764 10.4543 5.62343 9.71893 8.25256C9.48781 9.06634 8.73142 9.64016 7.88048 9.64016C7.79644 9.64016 7.71239 9.62972 7.62835 9.61929C7.57582 9.60886 7.52329 9.60886 7.46026 9.60886H7.36571H7.28167C5.8109 9.60886 4.61328 10.7982 4.61328 12.2693C4.61328 12.6449 4.68682 12.9266 4.8444 13.3856L4.89693 13.5317H5.05451H10.0341H10.2442V13.323C10.2337 13.2291 10.2337 13.1978 10.2337 13.1665V13.1457C10.2232 12.6344 10.4123 12.1441 10.759 11.7685C11.1162 11.3929 11.5889 11.1738 12.0932 11.1634H12.1457C13.1962 11.1634 14.0367 11.9772 14.0682 13.0205C14.1102 14.2516 14.646 15.4096 15.539 16.2026C16.7681 17.2772 18.3334 17.8719 19.9723 17.8719C20.2139 17.8719 20.4555 17.8614 20.6971 17.8301C23.6702 17.5067 26.0759 15.2323 26.5487 12.311C26.6957 11.3929 27.4837 10.7252 28.4291 10.7252C28.5237 10.7252 28.6287 10.7252 28.7338 10.7461C29.7843 10.913 30.4882 11.8937 30.3201 12.937C30.3149 12.9579 30.3122 12.9787 30.3096 12.9996C30.307 13.0205 30.3044 13.0413 30.2991 13.0622C30.2947 13.0926 30.2886 13.1229 30.2821 13.1548C30.2729 13.1996 30.2632 13.2473 30.2571 13.3022L30.2256 13.5421H30.4672H32.3372H32.5158ZM36.6339 43.4537C38.1467 43.4537 39.3758 42.2331 39.3758 40.7411V25.7906C39.3758 24.3091 38.1467 23.0988 36.6339 23.0988H35.3417H35.1211L35.1316 23.3179L35.93 43.2555L35.9405 43.4537H36.1401H36.6339ZM8.553 22.4624C8.553 21.4191 9.41445 20.5636 10.465 20.5636C11.5155 20.5636 12.377 21.4087 12.377 22.4624V28.5032C12.377 29.5465 11.5155 30.402 10.465 30.402C9.41445 30.402 8.553 29.5465 8.553 28.5032V22.4624Z" fill="url(#paint0_linear)"/>
<defs>
<linearGradient id="paint0_linear" x1="15.711" y1="1.74715e-07" x2="29.8511" y2="48.9122" gradientUnits="userSpaceOnUse">
<stop stop-color="#C7AE96"/>
<stop offset="1" stop-color="#C7AE96" stop-opacity="0.2"/>
</linearGradient>
</defs>
</svg>
