<svg width="52" height="55" viewBox="0 0 52 55" fill="none" xmlns="http://www.w3.org/2000/svg">
<g opacity="0.4">
<path d="M6.92685 13.1693C8.73813 14.9805 10.5739 16.7673 12.3852 18.5786C15.5916 21.7851 18.7981 24.967 21.98 28.1735C22.8367 29.0302 23.8403 29.74 24.5746 30.7435C25.0152 31.3555 25.4802 31.282 25.9942 30.768C30.0574 26.7049 34.1205 22.6417 38.1836 18.5786C39.7746 16.9876 41.3656 15.4211 42.9566 13.8301C43.5196 13.2916 44.0581 12.8266 42.9811 12.1657C42.2713 11.7251 42.2223 10.9174 42.4671 10.1831C42.7118 9.42431 43.2748 8.9103 44.0825 8.88582C45.6735 8.83687 47.2645 8.78792 48.8555 8.9103C50.3731 9.03268 51.0584 10.6481 50.2017 11.9454C49.9325 12.337 49.5653 12.7042 49.2227 13.0469C42.2468 20.0227 35.2709 27.0231 28.2706 33.9745C27.5852 34.6598 27.2425 35.3452 27.267 36.3242C27.316 39.7999 27.267 43.2512 27.267 46.7269C27.267 47.2653 27.267 47.8038 27.0467 48.2934C26.6551 49.1256 25.9942 49.5417 25.0886 49.4683C24.2319 49.3948 23.62 48.9298 23.4486 48.0731C23.3507 47.5591 23.3018 47.0206 23.3018 46.5066C23.2773 43.0798 23.2773 39.6531 23.3018 36.2263C23.3018 35.3452 23.0325 34.6843 22.3961 34.0724C15.4203 27.0965 8.41993 20.0962 1.44406 13.1203C1.10139 12.7776 0.734236 12.4349 0.464992 12.0433C-0.563031 10.5992 0.195748 8.9103 1.9336 8.88582C7.02476 8.81239 12.1404 8.83687 17.2316 8.86135C18.4309 8.86135 19.2142 9.66908 19.2386 10.7216C19.2631 11.7986 18.5778 12.6308 17.3295 12.6797C14.8818 12.7776 12.4341 12.7531 9.98644 12.7776C9.00737 12.7776 8.05278 12.7776 7.07371 12.7776C7.04923 12.9245 6.9758 13.0469 6.92685 13.1693Z" fill="url(#paint0_linear)"/>
<path d="M26.5575 9.1306C28.075 9.10612 29.4702 9.5467 30.6941 10.4034C31.4284 10.9419 31.9424 10.844 32.6522 10.4034C37.5475 7.24589 42.4674 4.13735 47.3872 1.00432C47.7543 0.759556 48.146 0.514788 48.5376 0.318975C49.688 -0.268467 50.8139 -0.0236998 51.3279 0.881939C51.8664 1.81206 51.5727 2.91351 50.4957 3.62333C47.1424 5.80176 43.7646 7.93124 40.4113 10.0852C38.5266 11.2846 36.6419 12.5329 34.7572 13.7077C34.0718 14.1239 33.9005 14.6379 33.9984 15.4456C34.439 18.6765 33.2886 21.2711 30.5227 22.96C27.8548 24.5999 25.0889 24.502 22.4699 22.7397C21.7845 22.2257 21.2705 22.2746 20.6096 22.7641C19.4348 23.5963 18.2844 23.4495 17.6235 22.4704C16.9381 21.4914 17.2074 20.292 18.4067 19.5577C19.2389 19.0437 19.3858 18.4807 19.2634 17.5261C18.676 13.1203 22.1762 9.1306 26.5575 9.1306ZM30.1311 16.5471C30.1066 14.5889 28.5646 13.0958 26.582 13.1203C24.6238 13.1203 23.1307 14.6623 23.1552 16.6694C23.1797 18.5786 24.7952 20.1696 26.7044 20.1207C28.6135 20.0717 30.1556 18.4807 30.1311 16.5471Z" fill="url(#paint1_linear)"/>
<path d="M25.3089 55C22.0046 55 18.7002 55 15.3958 55C13.8293 55 13.0216 54.3636 13.0216 53.1642C13.0216 52.0138 13.9028 51.2061 15.3714 51.2061C21.9801 51.1816 28.5643 51.2061 35.173 51.2061C35.9318 51.2061 36.6416 51.3529 37.1312 51.9893C37.5962 52.5768 37.6697 53.2621 37.3515 53.9475C37.0088 54.7063 36.3479 54.9755 35.5647 54.9755C32.4316 54.9755 29.2986 54.9755 26.1411 54.9755C25.8719 55 25.5782 55 25.3089 55Z" fill="url(#paint2_linear)"/>
</g>
<defs>
<linearGradient id="paint0_linear" x1="18.1435" y1="1.81308e-07" x2="30.9269" y2="51.8482" gradientUnits="userSpaceOnUse">
<stop stop-color="#C7AE96"/>
<stop offset="1" stop-color="#C7AE96" stop-opacity="0.2"/>
</linearGradient>
<linearGradient id="paint1_linear" x1="18.1435" y1="1.81308e-07" x2="30.9269" y2="51.8482" gradientUnits="userSpaceOnUse">
<stop stop-color="#C7AE96"/>
<stop offset="1" stop-color="#C7AE96" stop-opacity="0.2"/>
</linearGradient>
<linearGradient id="paint2_linear" x1="18.1435" y1="1.81308e-07" x2="30.9269" y2="51.8482" gradientUnits="userSpaceOnUse">
<stop stop-color="#C7AE96"/>
<stop offset="1" stop-color="#C7AE96" stop-opacity="0.2"/>
</linearGradient>
</defs>
</svg>
