<svg width="43" height="55" viewBox="0 0 43 55" fill="none" xmlns="http://www.w3.org/2000/svg">
<path opacity="0.4" d="M21.1033 55C10.3878 55 1.46642 47.1308 0.139274 36.5978C-0.475146 31.7101 0.999462 27.36 3.45714 23.2543C5.6199 19.6374 8.3725 16.436 10.8548 13.0635C12.2311 11.2061 13.5828 9.29992 14.7379 7.27152C15.7701 5.41419 16.5566 3.43467 16.5811 1.25964C16.6057 0.404292 16.9252 0.0865912 17.8346 0.0132756C19.2846 -0.0844786 20.3906 0.355414 21.4228 1.40627C26.2398 6.44061 27.2229 12.2081 25.0601 18.6843C24.7898 19.5397 24.4703 20.3706 24.2491 21.2504C23.8805 22.7656 24.6423 24.3296 26.0186 25.0628C27.4441 25.8204 29.0907 25.576 30.1967 24.4763C31.3026 23.3765 31.573 21.8858 30.6145 20.4928C29.8035 19.3197 30.0984 18.7332 31.1552 17.9756C33.4162 16.3627 33.3671 16.3138 35.0629 18.5377C37.029 21.1282 38.8723 23.8164 40.3469 26.749C43.9351 33.9095 41.7478 42.4875 36.9307 47.8884C32.7281 52.5806 27.4441 54.9756 21.1033 55ZM20.0219 7.02714C18.1541 11.0106 15.7947 14.2609 13.2879 17.438C11.1988 20.1018 9.1098 22.7656 7.38943 25.6982C5.89024 28.2642 4.63683 30.928 4.6614 34.0317C4.71056 39.6282 7.02077 44.076 11.5429 47.3752C11.8132 47.5707 12.1327 47.9617 12.5014 47.7418C12.7963 47.5462 12.6734 47.1308 12.6489 46.8375C12.5506 45.0535 13.1158 43.4894 14.0252 41.9743C14.9591 40.4346 15.9667 38.9683 17.0235 37.502C17.6871 36.5978 18.2032 35.6447 18.0803 34.4716C17.982 33.6651 18.3261 33.323 19.1863 33.2986C20.5626 33.2253 21.7669 33.4208 22.7745 34.4716C23.6838 35.4003 24.7161 36.2312 25.5517 37.2332C27.9356 40.1169 29.8035 43.2206 29.5823 47.1552C29.5331 47.7662 29.6806 48.0595 30.3196 47.644C30.7374 47.3752 31.1306 47.1063 31.5238 46.8131C36.4392 42.9518 40.052 34.6916 35.5299 27.3356C35.0137 26.5047 34.8417 26.1136 34.0307 27.1156C31.9416 29.7061 29.1153 30.6348 25.9203 29.9016C22.5533 29.1196 20.538 26.8224 19.7761 23.4743C19.26 21.2504 19.9973 19.222 20.7838 17.1936C22.0372 13.7966 21.816 10.5218 20.0219 7.02714ZM24.9864 46.1532C24.8144 43.7827 23.4135 41.7787 21.7668 39.8725C21.4474 39.506 21.177 39.4815 20.9067 39.9214C19.9236 41.6077 18.5719 43.0496 17.7117 44.8091C16.9252 46.3976 17.1464 47.9617 18.3261 49.1836C19.3583 50.2589 21.1524 50.6011 22.627 50.039C24.0525 49.4769 25.011 48.035 24.9864 46.1532Z" fill="url(#paint0_linear)"/>
<defs>
<linearGradient id="paint0_linear" x1="14.8154" y1="1.81308e-07" x2="30.0346" y2="50.4047" gradientUnits="userSpaceOnUse">
<stop stop-color="#C7AE96"/>
<stop offset="1" stop-color="#C7AE96" stop-opacity="0.2"/>
</linearGradient>
</defs>
</svg>
