<svg width="54" height="54" viewBox="0 0 54 54" fill="none" xmlns="http://www.w3.org/2000/svg">
<path d="M50.1001 21.0512C45.7826 17.6222 38.7758 18.0529 33.5569 21.7873C33.1027 21.1232 32.482 20.5784 31.7465 20.2153V13.6055H33.8372C34.7109 13.6055 35.4192 12.8971 35.4192 12.0234C35.4192 11.1497 34.7109 10.4414 33.8372 10.4414H32.377C32.3479 8.88532 31.6802 7.48364 30.6248 6.48686C31.3239 5.6603 31.7465 4.59274 31.7465 3.42784V1.58203C31.7465 0.708328 31.0382 0 30.1645 0H23.8363C22.9626 0 22.2543 0.708328 22.2543 1.58203V3.42773C22.2543 4.49139 22.6078 5.47277 23.2012 6.26474C22.0035 7.26954 21.2332 8.76656 21.2018 10.4413H20.1635C19.2898 10.4413 18.5815 11.1496 18.5815 12.0233C18.5815 12.897 19.2898 13.6054 20.1635 13.6054H22.2542V20.2152C21.5188 20.5783 20.8982 21.1229 20.444 21.7868C15.225 18.0527 8.21864 17.6222 3.90138 21.0511C2.01993 22.5453 -0.181946 25.4288 0.0130658 30.6805C0.123386 33.6528 0.99498 36.9973 2.61182 40.6715L2.19057 40.8629C1.39513 41.2244 1.04339 42.1623 1.40483 42.9577C1.66987 43.541 2.24468 43.8857 2.84606 43.8857C3.06491 43.8857 3.28745 43.84 3.49965 43.7436L3.9827 43.5241C4.53662 44.5909 5.14718 45.6822 5.81543 46.7974C6.11201 47.2923 6.63619 47.5666 7.17408 47.5665C7.45072 47.5665 7.73106 47.4939 7.98566 47.3413C8.73501 46.8923 8.97865 45.9206 8.52956 45.1711C7.92407 44.1606 7.37025 43.1748 6.86643 42.2134L7.3404 41.9981C8.13585 41.6366 8.48759 40.6987 8.12614 39.9033C7.7647 39.1078 6.82698 38.7561 6.03132 39.1174L5.48985 39.3635C4.04725 36.0825 3.27036 33.1367 3.17491 30.563C3.05942 27.4527 3.99103 25.0202 5.86901 23.5288C9.34262 20.7701 15.5452 21.5665 19.6763 25.2158C19.9173 26.7466 20.8875 28.0474 22.2541 28.7222V33.0379C18.5758 34.8106 16.0314 38.5766 16.0314 42.9257V50.8358C15.1577 50.8358 14.4494 51.5442 14.4494 52.4179C14.4494 53.2916 15.1577 53.9999 16.0314 53.9999H38.4963C39.37 53.9999 40.0783 53.2916 40.0783 52.4179C40.0783 51.5442 39.37 50.8358 38.4963 50.8358H37.9689V42.9257C37.9689 38.5766 35.4246 34.8106 31.7463 33.0379V28.7223C33.1126 28.0477 34.0827 26.7472 34.3239 25.2167C38.4551 21.5668 44.6582 20.7703 48.1322 23.5289C50.0102 25.0204 50.9418 27.4528 50.8263 30.5632C50.7308 33.1368 49.954 36.0827 48.5114 39.3636L47.9699 39.1175C47.1745 38.7563 46.2365 39.1078 45.8751 39.9034C45.5137 40.6988 45.8654 41.6367 46.6608 41.9982L47.1348 42.2136C46.631 43.1748 46.0772 44.1606 45.4717 45.1712C45.0226 45.9207 45.2662 46.8923 46.0156 47.3414C46.2703 47.4941 46.5505 47.5666 46.8272 47.5666C47.3649 47.5666 47.8892 47.2923 48.1858 46.7975C48.8541 45.6822 49.4646 44.591 50.0185 43.5242L50.5016 43.7437C50.714 43.8402 50.9362 43.8858 51.1552 43.8858C51.7565 43.8858 52.3314 43.541 52.5964 42.9578C52.9578 42.1624 52.6061 41.2245 51.8107 40.863L51.3894 40.6716C53.0063 36.9973 53.8779 33.6529 53.9882 30.6806C54.1833 25.4289 51.9814 22.5454 50.1001 21.0512ZM25.4183 3.16406H28.5823V3.42773C28.5823 4.30007 27.8726 5.00977 27.0003 5.00977C26.128 5.00977 25.4183 4.30007 25.4183 3.42773V3.16406ZM26.7894 8.12109C28.0915 8.12109 29.1575 9.15258 29.2129 10.4414H24.3659C24.4213 9.15258 25.4872 8.12109 26.7894 8.12109ZM34.805 42.9258V50.8359H19.1956V42.9258C19.1956 38.6222 22.6968 35.1211 27.0003 35.1211C31.3038 35.1211 34.805 38.6222 34.805 42.9258ZM27.0003 31.957C26.463 31.957 25.9351 31.9966 25.4183 32.0716V27.5883C25.4183 26.8167 24.8616 26.1576 24.1008 26.0285C23.3487 25.901 22.7816 25.2303 22.7816 24.4686C22.7816 23.7069 23.3487 23.0364 24.1008 22.9088C24.8616 22.7798 25.4183 22.1207 25.4183 21.349V13.6055H28.5823V21.3492C28.5823 22.1208 29.139 22.7799 29.8998 22.909C30.6519 23.0365 31.2191 23.7072 31.2191 24.4689C31.2191 25.2306 30.6519 25.9011 29.8998 26.0287C29.139 26.1577 28.5823 26.8168 28.5823 27.5885V32.0718C28.0655 31.9966 27.5376 31.957 27.0003 31.957Z" fill="url(#paint0_linear)"/>
<defs>
<linearGradient id="paint0_linear" x1="18.9914" y1="1.78011e-07" x2="30.8462" y2="51.2582" gradientUnits="userSpaceOnUse">
<stop stop-color="#C7AE96"/>
<stop offset="1" stop-color="#C7AE96" stop-opacity="0.2"/>
</linearGradient>
</defs>
</svg>
