<svg width="40" height="54" viewBox="0 0 40 54" fill="none" xmlns="http://www.w3.org/2000/svg">
<g opacity="0.4">
<path d="M19.4016 0.00991541C29.0295 -0.296931 36.9943 6.54811 38.8449 16.3672C39.4774 19.6717 38.9152 23.0234 37.8844 26.2571C36.1509 31.6151 33.2461 36.2886 29.9431 40.7497C28.3267 42.9684 26.6167 45.1164 24.9534 47.2879C24.6723 47.6656 24.3678 48.0196 23.993 48.3265C23.3371 48.8457 22.6343 48.8693 21.9315 48.3973C21.2053 47.9016 20.9242 47.1699 21.2053 46.3438C21.3459 45.9189 21.6036 45.494 21.9081 45.1164C24.8832 41.3162 27.8348 37.516 30.3882 33.3854C33.129 28.9479 35.2373 24.3216 35.2139 18.94C35.2139 12.3074 30.3648 6.07604 23.993 4.32937C18.7456 2.91316 13.9434 3.78649 9.63305 6.92577C4.80735 10.4191 2.88645 16.7685 4.24514 22.7166C5.79123 29.5616 9.39879 35.3209 13.3343 40.9149C15.5129 43.9834 17.9257 46.863 20.3152 49.7899C21.1585 50.8284 21.2053 51.9378 20.4557 52.6223C19.6827 53.3304 18.3708 53.2124 17.5509 52.2447C14.3182 48.4445 11.1557 44.6207 8.39149 40.4665C6.14262 37.0912 4.08116 33.6214 2.55849 29.8685C0.75471 25.5018 -0.463427 21.0407 0.169067 16.2964C1.43405 6.94937 9.30509 0.0807262 18.6754 0.00991541C18.933 0.00991541 19.1673 0.00991541 19.4016 0.00991541Z" fill="url(#paint0_linear)"/>
<path d="M27.1323 19.8609C27.0152 24.322 23.4779 27.6737 19.027 27.5321C15.1618 27.4141 11.8119 23.7555 11.8822 19.7665C11.9525 15.5651 15.5835 12.0245 19.683 12.1426C23.7356 12.237 27.2495 15.8719 27.1323 19.8609ZM23.2905 19.7901C23.2671 17.5714 21.6273 15.9663 19.4019 15.9663C17.4107 15.9899 15.6772 17.7366 15.6772 19.7665C15.6537 21.938 17.3638 23.6847 19.519 23.6847C21.721 23.6847 23.2905 22.0561 23.2905 19.7901Z" fill="url(#paint1_linear)"/>
</g>
<defs>
<linearGradient id="paint0_linear" x1="19.5557" y1="5.40379" x2="19.5557" y2="47.6719" gradientUnits="userSpaceOnUse">
<stop stop-color="#C7AE96"/>
<stop offset="1" stop-color="#C7AE96" stop-opacity="0.2"/>
</linearGradient>
<linearGradient id="paint1_linear" x1="19.5557" y1="5.40379" x2="19.5557" y2="47.6719" gradientUnits="userSpaceOnUse">
<stop stop-color="#C7AE96"/>
<stop offset="1" stop-color="#C7AE96" stop-opacity="0.2"/>
</linearGradient>
</defs>
</svg>
