<svg width="69" height="52" viewBox="0 0 69 52" fill="none" xmlns="http://www.w3.org/2000/svg">
<path opacity="0.4" d="M65.3284 27.6803C62.8473 32.4729 59.128 36.1082 55.2114 39.5348C50.3353 43.7978 44.9018 47.2651 38.6467 49.1836C29.2573 52.0731 20.1332 51.8613 11.6888 46.0695C7.83926 43.4362 5.1677 39.8082 3.31883 35.5808C0.740557 29.7 0.122689 23.5606 1.36944 17.3285C2.49567 11.6905 5.05528 6.81685 9.98384 3.56369C15.3595 0.0314745 21.0442 0.311633 26.5531 3.20781C31.6093 5.84257 36.5731 8.58207 41.9855 10.3797C45.8991 11.6913 49.9094 12.3951 53.9883 11.2741C55.1649 10.9422 56.2907 10.423 57.4268 9.94136C62.9122 7.7049 68.3888 11.3724 68.5468 17.3727C68.6922 21.2486 67.3287 24.6008 65.3284 27.6803ZM26.0941 35.648C25.1807 38.881 24.2299 42.1239 23.3404 45.3707C23.1241 46.1306 23.6793 46.3247 24.2927 46.3629C25.7036 46.4507 27.1348 46.6135 28.5427 46.5415C32.9436 46.2385 31.906 46.935 33.1005 42.8847C33.1897 42.6202 33.2414 42.3656 33.3305 42.1011C35.8604 33.4816 38.3528 24.872 40.8826 16.2524C41.1744 15.2517 41.0835 14.6937 39.9357 14.3153C37.9908 13.6664 36.0803 12.8478 34.2074 12.0193C33.3901 11.6738 33.0079 11.8955 32.7779 12.6791C31.8544 15.8747 30.9309 19.0702 30.0074 22.2657C29.8666 22.7848 29.9032 23.2167 30.209 23.6777C32.8964 27.8836 31.7076 32.4743 27.3502 34.7933C26.9168 35.0486 26.4052 35.1641 26.0941 35.648ZM37.0975 45.0976C40.4433 44.0905 43.2039 42.5561 45.9579 40.923C47.1421 40.2479 47.8496 39.2976 48.2204 37.9949C49.388 33.7711 50.6033 29.5749 51.8186 25.3786C52.6357 22.5325 53.4766 19.7001 54.2699 16.8401C54.3626 16.5145 54.954 15.6552 53.8833 15.8586C51.3293 16.3748 48.7868 16.2656 46.2347 15.8981C45.6111 15.8225 45.348 16.113 45.1798 16.6795C44.4484 19.3223 43.6931 21.9513 42.9139 24.5666C41.4823 29.5228 40.0406 34.4415 38.609 39.3976C38.0974 41.2194 37.6334 43.0686 37.0975 45.0976ZM15.5356 43.4242C16.3256 43.817 17.119 44.1488 17.8816 44.589C18.5387 44.9368 18.8252 44.881 19.0176 44.1073C19.6838 41.7428 20.3737 39.392 21.125 37.045C21.4989 35.9021 21.2651 35.2615 20.2337 34.5713C16.9967 32.418 15.8654 28.9841 16.9906 25.4942C17.7693 23.0999 20.8875 20.0655 24.7345 20.6118C25.5046 20.7088 25.938 20.4535 26.1543 19.6936C26.9887 16.7626 27.7991 13.8178 28.6948 10.8906C28.9522 10.0596 28.766 9.44647 28.0272 9.01995C26.2024 7.99799 24.3948 6.89117 22.4331 6.1062C21.4693 5.73932 21.0222 6.01838 20.7441 6.99539C20.2563 8.83091 19.6935 10.6863 19.1443 12.518C16.8718 20.3066 14.5755 28.0814 12.3643 35.8737C11.0766 40.4706 11.1243 40.4981 15.1781 43.2178C15.2973 43.2866 15.4164 43.3554 15.5356 43.4242ZM7.63401 12.4768C4.39596 19.0759 4.42546 26.2344 7.18149 33.5134C7.33063 33.9155 7.29836 34.6869 7.94271 34.6165C8.38934 34.5584 8.41454 33.9093 8.53814 33.4751C10.1344 28.0136 11.7068 22.5384 13.303 17.0769C14.2508 13.6742 15.2122 10.2478 16.1975 6.83518C16.5167 5.78707 16.2307 5.62196 15.2417 5.90412C11.8959 6.91116 9.65862 9.19019 7.63401 12.4768ZM54.0939 34.3709C58.421 30.2333 62.5234 25.9344 64.0085 19.84C64.4142 18.1467 64.2845 16.555 63.3093 15.1072C62.6977 14.1853 62.0247 13.2596 60.7087 13.4477C59.4301 13.6259 59.4278 14.7306 59.167 15.6228C58.0717 19.4459 56.9902 23.2454 55.895 27.0686C55.2289 29.4331 54.3412 31.7962 54.0939 34.3709ZM22.6176 30.6074C24.2858 31.5705 25.8852 31.1667 26.8156 29.5552C27.7187 27.991 27.2007 26.3016 25.5802 25.366C24.0789 24.4992 22.3157 24.9664 21.4912 26.4495C20.5197 28.1322 20.9358 29.6679 22.6176 30.6074Z" fill="url(#paint0_linear)"/>
<defs>
<linearGradient id="paint0_linear" x1="37.8829" y1="-5.09794" x2="20.6082" y2="48.4054" gradientUnits="userSpaceOnUse">
<stop stop-color="#C7AE96"/>
<stop offset="1" stop-color="#C7AE96" stop-opacity="0.2"/>
</linearGradient>
</defs>
</svg>
