<svg width="54" height="50" viewBox="0 0 54 50" fill="none" xmlns="http://www.w3.org/2000/svg">
<path fill-rule="evenodd" clip-rule="evenodd" d="M35.7516 9.27074L35.7515 9.2702L35.7513 9.26923C35.6591 8.67901 35.5664 8.0861 35.4688 7.48822C35.3739 6.94139 35.1367 6.58476 34.4962 6.87006C28.9926 9.2476 25.7426 15.025 28.0674 20.5884C29.04 22.9184 30.8429 24.4638 33.1203 25.5337C34.6385 26.2232 34.9706 27.626 33.9506 28.6483C33.3101 29.2665 32.5984 29.3616 31.7681 29.0525C26.9524 27.2218 23.5364 22.3478 23.5127 17.1886C23.5127 16.2613 23.2517 15.5481 22.6824 14.811C21.1404 12.7426 20.4524 10.365 20.8083 7.77352C20.9743 6.51343 21.8758 5.80017 22.8484 5.91904C23.8685 6.03792 24.509 6.89384 24.5327 8.15393C24.5327 8.70076 24.5802 9.2476 24.6513 9.81821C24.6666 9.98622 24.7112 10.1444 24.7726 10.3621L24.7726 10.3622L24.7726 10.3622C24.8068 10.4834 24.8462 10.623 24.8886 10.793C25.1428 10.3853 25.3698 10.0254 25.5805 9.69133C25.763 9.40199 25.9333 9.13203 26.0984 8.86719C26.2645 8.60566 26.1933 8.34413 26.051 8.0826C25.197 6.65608 24.0108 5.58619 22.54 4.82538C21.9232 4.49252 21.5911 4.73028 21.3302 5.27711C20.8557 6.22812 20.4287 7.20292 20.1915 8.24903C19.8831 9.60423 18.9579 10.2462 17.7955 9.93708C16.728 9.65178 16.2061 8.55811 16.5145 7.27424C17.0364 5.20578 17.9141 3.32753 19.1952 1.6157C20.0254 0.522035 21.0218 0.18918 22.3265 0.593361C24.7462 1.3304 26.7389 2.73314 28.3046 4.68273C28.9451 5.49109 29.3958 5.60996 30.2261 4.99181C31.9104 3.70794 33.8794 2.9709 35.8958 2.35274C37.5801 1.82968 38.6476 2.54294 38.9323 4.30232C39.0391 5.00369 39.1458 5.711 39.2526 6.41832L39.2539 6.42726L39.254 6.42761C39.3602 7.13183 39.4665 7.83603 39.5728 8.53434C39.7863 9.88953 40.0235 11.2685 40.2608 12.6237C40.5119 12.7675 40.6681 12.6258 40.8217 12.4865L40.8217 12.4865C40.8712 12.4416 40.9204 12.3969 40.9724 12.3622C43.9852 10.1748 47.3538 10.0084 50.841 10.6028C52.5728 10.8881 53.2607 11.8867 53.1184 13.6223C52.9523 15.6432 52.7151 17.6403 51.8136 19.4948C51.5052 20.1367 51.6001 20.6598 52.0271 21.2304C54.8122 25.1571 53.5113 25.9772 50.6009 27.8118L50.5563 27.8399C46.0728 30.6454 41.3994 30.4315 36.7973 28.0301C35.5163 27.3644 35.113 26.3183 35.6586 25.3197C36.2517 24.2261 37.2954 24.0121 38.6002 24.7016C41.4943 26.1994 44.4834 26.3659 47.5436 25.2009C47.9148 25.0696 48.2659 24.8577 48.5969 24.658L48.6823 24.6065C49.0144 24.3925 49.3939 24.131 49.0856 23.6555C48.796 23.1866 48.4646 23.3886 48.1306 23.5922C48.1089 23.6054 48.0872 23.6186 48.0655 23.6317C46.5235 24.6065 44.7918 25.0107 43.0126 25.1058C41.6604 25.1771 40.7589 24.5827 40.5929 23.5366C40.4268 22.3954 41.1385 21.5632 42.5856 21.373C43.8191 21.2066 44.9816 21.0164 46.0965 20.3745C48.1367 19.2095 48.8483 17.3312 49.133 15.1677C49.2279 14.4306 48.8009 14.2166 48.1367 14.1691C44.3173 13.8838 41.6841 15.7858 40.7352 19.5423C40.5692 20.1843 40.4031 20.85 40.3319 21.5157C40.2133 22.6807 39.7389 23.5366 38.5053 23.6555C37.3666 23.7506 36.7973 22.9898 36.4889 21.8248C36.0619 22.4905 35.6586 23.0373 35.0418 23.2988C34.4013 23.5841 33.7371 23.6079 33.0728 23.3464C32.1239 22.966 31.3885 21.8723 31.5309 20.8975C31.6732 19.8276 32.2188 19.0431 33.2863 18.734C34.5674 18.3773 35.4925 18.8766 36.6549 20.636C36.9633 18.4962 37.5564 16.5942 38.6714 14.8824C38.8374 14.6208 38.8849 14.288 38.4816 14.2404C36.7749 14.1778 36.4926 13.0172 36.2087 11.8504C36.169 11.6873 36.1292 11.524 36.0856 11.3636L36.0838 11.3611L36.0843 11.3555C35.969 10.6618 35.8605 9.96817 35.7516 9.27074ZM36.0838 11.3611C35.8654 13.8636 34.6571 14.7844 32.2946 14.2178C33.043 14.8758 33.7368 15.562 33.7133 16.6655C33.6896 17.9969 32.717 18.9955 31.3885 19.043C30.0126 19.0906 28.8739 18.1396 28.7553 16.8319C28.6604 15.5956 29.6093 14.3831 30.8666 14.2166C31.1376 14.1738 31.4258 14.1824 31.7104 14.191C31.8992 14.1967 32.0865 14.2024 32.2663 14.1929L32.2782 14.2033C32.1879 14.1015 32.1029 14.0049 32.0179 13.9083L32.0174 13.9078L32.0171 13.9075C31.9282 13.8065 31.8392 13.7055 31.7444 13.5985C30.748 12.3859 30.8192 10.8881 31.9104 10.0322C33.0728 9.12872 34.6622 9.36647 35.5637 10.579C35.6586 10.7098 35.7416 10.8405 35.8246 10.9713C35.9071 11.1012 35.9896 11.2312 36.0838 11.3611ZM27.1185 30.3126H48.9432C49.2279 30.3126 49.4888 30.3126 49.7735 30.3363C50.8173 30.4314 51.3155 31.1447 51.4341 32.0719C51.5527 33.023 51.0071 33.6887 50.1293 33.9264C49.4651 34.1166 48.7297 34.1404 48.018 34.1404C34.9706 34.1642 21.9233 34.1642 8.89958 34.1642C7.09666 34.1642 7.09666 34.1642 7.66601 35.876C8.78096 39.4185 10.655 42.5569 13.1222 45.3624C13.5492 45.8617 14.0236 46.0519 14.6642 46.0519C16.7182 46.0519 18.7708 46.0504 20.8227 46.0489L20.8362 46.0489H20.8384H20.8389H20.8394H20.8398H20.8403C27.0054 46.0444 33.1638 46.04 39.3356 46.0756C40.3557 46.0756 40.9487 45.5526 41.4943 44.8631C43.5819 42.3429 45.2188 39.5612 46.3812 36.4942C46.408 36.4271 46.4338 36.359 46.4597 36.2908C46.6173 35.8758 46.7769 35.4553 47.164 35.2103C47.8994 34.711 48.6585 34.6635 49.3939 35.1865C50.1768 35.7333 50.2717 36.5417 50.0107 37.4214C49.1567 40.3458 47.6622 42.9373 45.883 45.3862C42.6263 49.9036 42.5859 49.9036 37.1208 49.9035H37.0345C35.0944 49.9035 33.1557 49.902 31.2178 49.9005H31.2172H31.2167H31.2161H31.2155H31.215C25.4055 49.896 19.6026 49.8916 13.7864 49.9272C12.6715 49.9272 11.8649 49.5706 11.0821 48.7623C6.78827 44.2925 4.17879 38.9668 2.82661 32.9754C2.44705 31.2398 3.22989 30.3363 5.15142 30.3363C8.81655 30.3244 12.4757 30.3244 16.135 30.3244C19.7942 30.3244 23.4534 30.3244 27.1185 30.3126ZM17.8904 11.3636C16.1587 9.60423 14.2134 8.20149 10.6788 8.17771C9.61125 8.17771 8.1879 9.12873 7.31016 10.8168C6.95433 11.53 6.55104 11.7916 5.7682 11.7916C3.39595 11.7916 1.59303 12.909 0.572964 15.0963C-0.352215 17.1648 -0.186157 19.3046 1.28464 21.1353C1.80654 21.7772 1.8777 22.2765 1.54559 23.0373C0.739022 24.8442 0.928802 26.6036 2.23354 28.149C3.51456 29.6706 5.19886 30.0273 7.07294 29.5518C7.83206 29.3616 8.59118 29.1 9.32658 28.8147C10.7025 28.2441 12.0309 28.1015 13.4543 28.7196C14.4506 29.1476 15.4707 28.6483 15.9214 27.6973C16.3722 26.77 16.0638 25.8666 14.9963 25.3435C13.5729 24.6065 12.0547 24.2261 10.4178 24.5589C9.52549 24.7472 8.66416 25.039 7.79973 25.3319C7.35425 25.4828 6.90794 25.634 6.45615 25.7715C5.9817 25.9141 5.38864 26.033 5.10397 25.4386C4.8193 24.7967 5.10397 24.2736 5.67331 23.917C5.77718 23.8426 5.89034 23.7869 6.00116 23.7323C6.06751 23.6996 6.13302 23.6673 6.1952 23.6317C7.54739 22.7996 7.61856 21.2066 6.26637 20.3507C5.53097 19.8752 4.86674 19.3046 4.32112 18.6389C3.68062 17.8543 3.70434 17.0459 4.34485 16.2613C5.00908 15.4767 6.07659 15.4054 7.14411 16.1187C7.99812 16.6893 8.82841 16.7844 9.6587 16.1662C10.286 15.711 10.3019 15.0184 10.3178 14.3231C10.3193 14.2558 10.3208 14.1886 10.3229 14.1216C10.3704 12.0531 11.343 11.4825 13.1459 12.4573C13.3594 12.5524 13.5492 12.695 13.739 12.8377C16.6094 14.8824 18.0802 17.783 18.7444 21.1591C19.0054 22.5618 19.8357 23.2275 20.9981 22.9898C22.1367 22.7758 22.7298 21.7772 22.4689 20.4458C21.8284 16.9746 20.3813 13.8838 17.8904 11.3636ZM9.32658 17.4739C14.8539 17.9018 19.3849 21.587 21.0692 26.6036C21.4488 27.721 20.9743 28.6721 20.0254 29.0762C19.124 29.4566 18.1039 29.0287 17.582 27.9826C17.4871 27.7864 17.3952 27.5888 17.3033 27.3911C17.0275 26.7983 16.7517 26.2054 16.3959 25.6526C15.0912 23.5841 13.2408 22.2527 10.8923 21.6345C10.4517 21.5201 9.99996 21.4281 9.5447 21.3354L9.54467 21.3354L9.54464 21.3354L9.54461 21.3354C9.33799 21.2933 9.13064 21.2511 8.9233 21.2066C7.54739 20.9213 6.9306 20.1842 7.07294 19.043C7.239 17.9731 7.97439 17.4501 9.32658 17.4739ZM24.2481 29.3615C25.5528 29.314 26.644 28.1252 26.6203 26.77C26.5966 25.4386 25.5053 24.3925 24.1769 24.3925C22.7773 24.4163 21.7572 25.4624 21.7809 26.9127C21.8046 28.363 22.8484 29.4091 24.2481 29.3615Z" fill="url(#paint0_linear)"/>
<defs>
<linearGradient id="paint0_linear" x1="26.7841" y1="0.427612" x2="26.7841" y2="64.9949" gradientUnits="userSpaceOnUse">
<stop stop-color="#C7AE96"/>
<stop offset="1" stop-color="#C7AE96" stop-opacity="0"/>
</linearGradient>
</defs>
</svg>
