<svg width="48" height="49" viewBox="0 0 48 49" fill="none" xmlns="http://www.w3.org/2000/svg">
<path fill-rule="evenodd" clip-rule="evenodd" d="M31.8277 0.433624C32.5714 0.391033 33.1239 0.710471 33.4213 1.41324C33.6976 2.116 33.5063 2.73358 32.9751 3.24468C32.8476 3.3618 32.7042 3.46295 32.5608 3.56409L32.5608 3.56412C32.4173 3.66528 32.2739 3.76643 32.1464 3.88356C31.2327 4.6928 31.169 5.62982 31.9127 6.58814C32.7626 7.67423 32.8051 8.48347 32.0402 9.16494C31.1902 9.93159 30.2341 9.78252 29.2779 8.71773C27.1105 6.33259 27.8542 2.15859 30.7228 0.689175C31.0628 0.5614 31.424 0.433624 31.8277 0.433624ZM44.3644 11.3584H42.2607C42.3429 10.9138 42.5902 10.7493 42.816 10.5991L42.816 10.5991C42.8823 10.5551 42.9466 10.5123 43.0044 10.464C43.4205 10.1268 43.8476 9.8045 44.2735 9.48308C44.8699 9.03297 45.4639 8.58467 46.0217 8.10013C46.8504 7.37607 46.8929 6.52423 46.2767 5.75758C45.703 5.05482 44.7468 4.92704 43.8969 5.54462C41.687 7.14182 39.4772 8.73901 37.3311 10.4214C36.5449 11.039 35.7587 11.3797 34.7388 11.3797C24.4757 11.3584 14.1914 11.3584 3.92831 11.3584C2.05844 11.3584 1.52722 11.6565 1.01726 13.4667C-1.63881 22.7943 0.953513 32.271 8.24177 38.7023C9.3042 39.6394 10.3879 40.0014 11.7903 39.9801C14.203 39.9345 16.6266 39.9431 19.0532 39.9518C20.0246 39.9553 20.9965 39.9588 21.9684 39.9588C23.6025 39.9588 25.2344 39.9564 26.8646 39.9541H26.8678H26.871H26.8741H26.8773H26.8805H26.8837H26.8869H26.8901H26.8933H26.8964C30.1734 39.9493 33.4442 39.9446 36.7149 39.9588C37.5223 39.9588 38.2023 39.7458 38.861 39.2347C42.6007 36.2746 45.1293 32.4626 46.7017 27.9692C47.8491 24.7109 47.8916 21.3675 47.7216 17.9814C47.6791 16.8314 46.8504 16.1287 45.873 16.2352C44.9381 16.3416 44.3431 17.1296 44.4069 18.237C44.4069 18.2902 44.4122 18.3435 44.4175 18.3967C44.4228 18.4499 44.4281 18.5032 44.4281 18.5564C44.8743 25.222 42.792 30.908 37.9473 35.5505C37.2673 36.232 36.5661 36.5302 35.6099 36.5302L35.5874 36.5301H35.5869H35.5864H35.5859H35.5854H35.5849H35.5845H35.584H35.5835H35.583H35.5825C27.8997 36.5088 20.2381 36.4876 12.5552 36.5302C11.3653 36.5302 10.4729 36.232 9.64418 35.3589C8.75174 34.4006 7.8593 33.4422 7.1156 32.3562C3.75832 27.5433 2.67465 22.2406 3.75833 16.4907C4.07705 14.8296 4.11955 14.8296 5.81944 14.8296H44.3856C45.8093 14.8296 46.6167 14.1695 46.6167 13.1047C46.6167 12.0825 45.703 11.3797 44.3644 11.3584ZM40.3484 40.768H23.987C18.7173 40.768 13.4477 40.768 8.17802 40.7893C7.71056 40.7893 7.24309 40.7893 6.79687 40.8745C5.75569 41.0662 5.13948 41.7902 5.20322 42.6847C5.26697 43.5578 5.98942 44.3031 7.05185 44.1967C8.32677 44.0902 9.00672 44.6865 9.60168 45.6661C9.76104 45.9216 9.95228 46.1559 10.1435 46.3901C10.3348 46.6244 10.526 46.8586 10.6854 47.1142C11.2591 48.0086 12.024 48.3281 13.0864 48.3281C18.5048 48.2961 23.9231 48.3001 29.3414 48.3041C31.1476 48.3054 32.9538 48.3068 34.76 48.3068H35.3975C36.3536 48.2642 36.9273 47.7318 36.9911 46.7948C37.0548 45.8364 36.5449 45.2402 35.5887 45.0911C35.1212 45.0059 34.675 45.0059 34.2075 45.0059C27.7905 45.0059 21.3946 45.0059 14.9776 44.9846C14.827 44.9794 14.6499 44.9971 14.4675 45.0153C13.9032 45.0716 13.2886 45.1329 13.2564 44.5374C13.2241 44.0841 13.8425 44.1477 14.393 44.2043C14.5667 44.2221 14.7337 44.2393 14.8713 44.2393C23.1993 44.218 31.506 44.218 39.8339 44.218H39.8384C39.9334 44.218 40.0296 44.2193 40.1266 44.2206C40.42 44.2246 40.7196 44.2287 41.0071 44.1967C41.8995 44.0689 42.537 43.6217 42.6432 42.6634C42.7282 41.7689 42.1545 41.0662 41.1983 40.8532C40.9221 40.7893 40.6246 40.768 40.3484 40.768ZM24.1145 0.625271C22.4146 1.30674 21.1397 3.28726 21.1397 5.28907C21.1397 6.60942 21.5859 7.78069 22.4571 8.82419C23.2645 9.76121 24.2845 9.93158 25.0707 9.2927C25.8356 8.67512 25.8568 7.7594 25.1556 6.73719C24.242 5.41685 24.4119 4.47983 25.7081 3.5854C26.6218 2.94652 26.9193 2.13728 26.5156 1.32804C26.0906 0.497495 25.1344 0.220649 24.1145 0.625271ZM14.3189 5.67227C14.3189 3.30842 15.5513 1.3492 17.2724 0.646435C18.2499 0.241813 19.1636 0.476068 19.5885 1.26402C20.0347 2.09456 19.7585 3.01028 18.8448 3.62786C17.6337 4.4584 17.4424 5.45931 18.2711 6.69447C19.0361 7.84445 19.0148 8.69629 18.2286 9.31387C17.3999 9.95274 16.2525 9.71849 15.4451 8.69629C14.6801 7.67408 14.3189 6.5454 14.3189 5.67227ZM23.8807 20.9628C25.0281 20.9841 26.1118 19.9193 26.1118 18.7268C26.1118 17.4703 25.1344 16.4694 23.902 16.4907C22.7333 16.4907 21.6496 17.5981 21.6709 18.7481C21.6921 19.8129 22.797 20.9415 23.8807 20.9628ZM32.9964 18.7268C32.9964 17.4916 33.9101 16.5333 35.0787 16.4907C36.3111 16.4694 37.3523 17.5129 37.3523 18.7907C37.3523 20.0258 36.4174 20.9415 35.2062 20.9415C33.9526 20.9628 32.9964 19.9832 32.9964 18.7268ZM43.0257 18.7907C43.0682 17.5981 41.9633 16.512 40.7096 16.4907C39.6047 16.4907 38.6272 17.449 38.5847 18.5564C38.521 19.7703 39.5409 20.899 40.6884 20.9415C41.8358 20.9841 42.9832 19.9406 43.0257 18.7907ZM7.13684 20.9415C5.92568 20.9628 4.82075 19.8767 4.7995 18.6629C4.77825 17.5768 5.86193 16.512 7.00935 16.4907C8.17803 16.4694 9.2617 17.5342 9.2617 18.7055C9.2617 19.8767 8.26302 20.9202 7.13684 20.9415ZM12.6615 20.9415C13.8939 20.9415 14.8288 19.9832 14.8501 18.7055C14.8713 17.4703 14.0001 16.5333 12.7677 16.4694C11.5778 16.4481 10.5154 17.449 10.4941 18.6629C10.4729 19.9406 11.4291 20.9415 12.6615 20.9415ZM18.3561 20.9629C17.1874 20.9629 16.1038 19.8981 16.0825 18.7481C16.0613 17.5981 17.1874 16.4907 18.3349 16.512C19.5035 16.5333 20.566 17.6194 20.5447 18.7907C20.5235 19.9194 19.461 20.9629 18.3561 20.9629ZM31.764 18.7694C31.8065 17.5981 30.7653 16.512 29.5754 16.4907C28.4067 16.4694 27.323 17.5555 27.3018 18.7268C27.323 19.9193 28.3429 20.9415 29.5541 20.9415C30.6803 20.9202 31.7215 19.898 31.764 18.7694Z" fill="url(#paint0_linear)"/>
<defs>
<linearGradient id="paint0_linear" x1="23.8977" y1="0.429871" x2="23.8977" y2="62.9083" gradientUnits="userSpaceOnUse">
<stop stop-color="#C7AE96"/>
<stop offset="1" stop-color="#C7AE96" stop-opacity="0"/>
</linearGradient>
</defs>
</svg>
