<svg width="50" height="51" viewBox="0 0 50 51" fill="none" xmlns="http://www.w3.org/2000/svg">
<path fill-rule="evenodd" clip-rule="evenodd" d="M18.8733 4.71022C18.8292 3.22958 19.2261 2.05833 20.3286 1.19646C21.0562 0.621884 21.828 0.599785 22.5557 1.19646C23.2833 1.79314 23.3936 2.655 22.9085 3.38428C22.3793 4.13565 22.4013 4.73232 22.8203 5.48369C23.2833 6.30136 22.9967 7.07483 22.269 7.60521C21.5193 8.15769 20.7255 8.06929 20.064 7.42842C19.2702 6.67705 18.741 5.74888 18.8733 4.71022ZM37.9025 2.56658C37.8804 3.20746 37.5276 3.69364 36.9323 4.09142C35.499 5.04168 35.2785 6.16874 36.2487 7.62728C36.3714 7.81863 36.497 8.0081 36.6225 8.19744L36.6226 8.19761L36.6228 8.1979L36.6228 8.19793C37.1058 8.92682 37.5875 9.65373 37.9025 10.4781C38.9388 13.0637 37.9686 15.9808 35.6754 17.152C34.7934 17.594 34.0217 17.4614 33.4263 16.6879C32.831 15.8924 32.9412 15.1189 33.6027 14.3896C35.058 12.8427 35.1242 11.9145 33.7571 10.235C32.853 9.13002 32.39 7.89247 32.1915 6.52233C31.8387 4.29031 33.2499 1.77101 35.2785 0.931245C36.6015 0.422965 37.8804 1.15224 37.9025 2.56658ZM21.6026 41.446C22.8614 41.4277 24.0535 41.4103 25.1355 41.4612C26.4297 41.4612 27.5923 41.4532 28.681 41.4457L28.6819 41.4457H28.6821H28.6823H28.6825H28.6827C30.1529 41.4356 31.4883 41.4264 32.831 41.4391C38.0348 41.5275 42.3566 39.5385 45.8405 35.7596C48.1337 33.2845 49.8315 30.5 49.6772 26.8978C49.5449 23.8923 47.2737 21.6382 44.2749 21.6603C43.3047 21.6603 42.3566 21.815 41.4305 22.036C39.0932 22.5885 36.8882 22.1907 34.7934 21.1742C32.0151 19.8261 29.766 17.7709 27.7154 15.4726C27.5392 15.2732 27.364 15.0732 27.1891 14.8735L27.1869 14.8711L27.1868 14.8709L27.1867 14.8708C25.5004 12.9457 23.8294 11.0381 21.4531 9.8373C15.1248 6.65502 7.47343 8.90914 3.35007 14.4339C-0.28818 19.3178 -0.574831 24.8205 0.659971 30.4558C1.49787 34.3452 3.74697 37.3065 7.36318 39.1849C9.83278 40.4446 12.4788 40.975 15.1909 41.2623C17.3801 41.5076 19.5776 41.4755 21.6026 41.446ZM10.7589 22.5443C11.1117 22.9421 11.4865 23.362 11.9716 23.8702H10.9794C8.44363 23.804 6.65758 25.0194 5.70943 27.2956C4.78333 29.5718 5.33458 31.7375 6.87808 33.5939C7.80418 34.7209 9.12718 34.9198 10.5163 34.6104C11.7732 34.301 12.5449 33.4834 12.8757 32.2458C13.1403 31.2514 12.589 29.9475 11.7511 29.616C10.7589 29.2403 10.0533 29.6602 9.52408 30.5221C9.493 30.5844 9.42908 30.6247 9.36316 30.6663L9.36314 30.6663C9.33553 30.6838 9.30757 30.7014 9.28153 30.721C8.64208 29.5497 8.73028 28.5774 9.47998 27.9144C10.384 27.1188 12.2583 27.1409 13.2946 28.0028C13.4931 28.1685 13.675 28.3508 13.8569 28.5332C14.0388 28.7155 14.2207 28.8978 14.4192 29.0635C15.6319 30.0801 17.0431 30.2127 18.4764 29.837C19.3584 29.616 19.8435 28.9089 19.7112 28.0028C19.5789 27.0525 18.8953 26.4779 17.9472 26.5L17.8916 26.5018C17.2071 26.5239 16.5743 26.5442 16.3596 25.7266C16.2273 25.2183 16.4919 24.7984 16.9329 24.6658C17.6615 24.4352 17.9733 24.9566 18.2742 25.4598L18.2743 25.4599L18.2743 25.46L18.2744 25.4601L18.2744 25.4601C18.3195 25.5355 18.3643 25.6104 18.4102 25.6824C18.7678 26.2305 19.286 26.5976 19.7924 26.9564L19.8655 27.0083C22.6438 28.9531 23.614 31.6933 23.3935 34.964C23.3274 36.1574 23.9448 36.975 25.0032 37.0855C25.9955 37.1739 26.7893 36.4668 26.8995 35.3618C26.9657 34.8093 26.9657 34.2568 26.9436 33.7044C26.9216 33.1077 26.8775 32.511 26.8113 31.9364C26.7672 31.5166 26.8995 31.4061 27.2964 31.5165C27.5515 31.5908 27.8077 31.6626 28.0636 31.7342L28.0638 31.7342C30.3953 32.3868 32.6994 33.0317 33.9114 35.5607C34.3745 36.511 35.499 36.7319 36.2928 36.2458C37.1969 35.6933 37.3953 34.8535 36.9543 33.9475C36.5133 33.0414 36.8882 32.8204 37.704 32.6657C39.9311 32.2016 41.9817 31.3619 43.878 30.1022C45.0246 29.3287 45.3554 28.3343 44.8041 27.4061C44.2749 26.5 43.3047 26.3895 42.114 27.0967C40.5044 28.047 38.8286 28.8647 36.7338 29.1961C36.7985 29.0179 36.8703 28.8406 36.9417 28.6641C37.3575 27.6371 37.7622 26.6377 36.6897 25.6382C38.3655 25.8813 39.9752 25.8371 41.5848 25.594C41.7121 25.5776 41.8398 25.5608 41.968 25.5439L41.968 25.5439C42.7058 25.4467 43.4573 25.3476 44.2088 25.3288C45.4436 25.2846 46.1051 25.9476 46.1933 27.1851C46.2594 28.0691 46.083 28.8868 45.7082 29.6602C43.1283 34.8093 39.1152 37.859 33.2058 37.9032C27.3185 37.9474 21.4531 37.9253 15.5658 37.8148C13.4049 37.7706 11.266 37.196 9.30358 36.2458C6.28273 34.7872 4.58488 32.29 3.94542 28.9972C3.01932 24.0912 3.48237 19.4504 6.98833 15.6494C11.2881 10.9644 18.5866 10.1909 23.4156 15.9146C26.1719 19.1852 29.1045 22.1686 32.9192 24.2017C33.8012 24.6658 34.7052 25.0636 35.94 25.3951C34.8375 25.5719 34.3304 26.1023 33.9114 26.8094C33.7154 27.1435 33.4321 27.4251 33.1548 27.7009C33.1202 27.7353 33.0857 27.7696 33.0515 27.8039C31.7946 29.0414 30.2511 29.174 28.7738 28.2238C28.3328 27.9365 28.3989 27.7818 28.7958 27.5387C28.8963 27.4807 28.9971 27.4236 29.098 27.3665L29.0983 27.3663L29.0986 27.3661L29.0989 27.366L29.099 27.366C29.7282 27.0097 30.3556 26.6544 30.8685 26.1023C31.6623 25.2404 31.7285 24.4006 31.067 23.6272C30.4496 22.8979 29.4353 22.7874 28.5974 23.4725C27.2743 24.5553 25.7309 24.931 24.1212 25.1741C23.5258 25.2625 21.8721 24.3122 21.6075 23.804C21.4103 23.4447 21.6357 23.2752 21.8454 23.1176C21.8936 23.0813 21.9411 23.0456 21.9823 23.0084C22.8643 22.257 23.592 21.3951 24.1212 20.3565C24.4078 19.8261 24.6063 19.2736 24.6504 18.677C24.6945 17.8814 24.3196 17.3289 23.614 17.0195C22.8864 16.688 22.2469 16.8648 21.6957 17.4173C21.4423 17.6862 21.2997 18.0057 21.159 18.321C21.0916 18.4721 21.0246 18.6222 20.946 18.7654C20.1742 20.2018 19.0717 21.1079 17.3739 21.0416C16.977 21.0195 16.558 21.0637 16.1611 21.13C14.5294 21.373 13.4269 20.7322 12.9639 19.2957C12.6111 18.1466 13.3828 16.8648 14.8161 16.2019C14.9263 16.3123 14.8835 16.4228 14.8406 16.5333C14.832 16.5554 14.8234 16.5775 14.8161 16.5996C14.5956 17.4615 14.8161 18.1466 15.5658 18.6107C16.3596 19.0968 17.1313 18.92 17.8149 18.3676C18.7851 17.5941 19.1158 16.2902 18.6969 14.9643C18.3 13.7267 16.9549 12.7323 15.6099 12.6218C13.3167 12.445 11.0235 13.8814 9.87688 16.2239C8.92873 18.1687 9.32563 20.9532 10.7589 22.5443ZM42.8196 42.4335H25.5103H25.5073C19.6651 42.4335 13.8228 42.4335 7.98058 42.4556C6.76783 42.4556 5.95197 43.1186 5.90787 44.113C5.86377 45.0854 6.70167 45.9473 7.89238 45.8589C9.14923 45.7705 9.87688 46.3451 10.4943 47.2953C10.6595 47.5438 10.849 47.7873 11.04 48.0329L11.04 48.0329C11.2567 48.3116 11.4754 48.5928 11.6629 48.8865C12.3244 49.9914 13.2946 50.2787 14.5515 50.2787C20.0413 50.2456 25.5186 50.2497 31.0022 50.2538C32.831 50.2552 34.6604 50.2566 36.4913 50.2566C36.8661 50.2566 37.241 50.2566 37.5938 50.2124C38.586 50.0798 39.1373 49.461 39.1593 48.5108C39.1814 47.5605 38.6522 46.8975 37.6599 46.7649C37.0646 46.6986 36.4913 46.6986 35.8959 46.6986H15.3894C15.324 46.6986 15.2528 46.7019 15.1789 46.7052H15.1788H15.1787H15.1786H15.1784C14.7792 46.7234 14.3055 46.7449 14.2869 46.2788C14.2697 45.7633 14.6792 45.8223 15.0384 45.874H15.0384C15.1412 45.8888 15.2398 45.9031 15.3232 45.9031C16.0538 45.9105 16.782 45.9253 17.5084 45.9401L17.5087 45.9401H17.509H17.5092H17.5095H17.5096H17.5098H17.51H17.5102C18.9538 45.9695 20.3909 45.9988 21.828 45.9694C25.1091 45.8836 28.3811 45.8995 31.6557 45.9155L31.6569 45.9155C33.4433 45.9243 35.2305 45.933 37.0205 45.9252C39.0711 45.9252 41.1218 45.9031 43.1724 45.881C44.4734 45.8589 45.1128 45.1075 45.0026 43.9362C44.8923 42.9197 44.2308 42.4335 42.8196 42.4335ZM26.5201 9.43932C26.9039 9.86015 27.3001 10.2947 27.0759 10.986C26.9877 12.091 27.4728 12.9086 28.3989 13.1296C29.303 13.3285 30.1629 12.8202 30.5598 11.8479C30.8465 11.1407 30.8906 10.4335 30.6701 9.68215C30.4055 8.77608 29.8763 8.04681 29.3029 7.31754C28.3327 6.05789 28.421 5.21812 29.5676 4.13526C29.6337 4.06897 29.6998 4.0082 29.766 3.94743C29.8321 3.88665 29.8983 3.82588 29.9645 3.75958C30.5819 3.1187 30.7803 2.43363 30.2732 1.66016C29.744 0.864592 28.9722 0.555204 28.0681 0.930889C27.6712 1.10768 27.2964 1.35077 26.9656 1.63806C24.7386 3.60488 24.4519 6.65457 26.2159 9.08547C26.3072 9.20586 26.4132 9.32206 26.5201 9.43932ZM17.6385 36.6877C18.6087 35.6049 18.8071 34.2789 18.9174 32.9088C18.8953 31.4502 18.2559 30.5884 17.1534 30.5663C16.0509 30.5442 15.4335 31.2955 15.3894 32.8425C15.3673 33.5275 15.1248 34.1021 14.794 34.6988C14.3089 35.5607 14.5294 36.4446 15.3012 37.0192C16.0729 37.5938 16.9108 37.4833 17.6385 36.6877Z" fill="url(#paint0_linear)"/>
<defs>
<linearGradient id="paint0_linear" x1="24.8435" y1="0.757202" x2="24.8435" y2="65.353" gradientUnits="userSpaceOnUse">
<stop stop-color="#C7AE96"/>
<stop offset="1" stop-color="#C7AE96" stop-opacity="0"/>
</linearGradient>
</defs>
</svg>
