<svg width="48" height="50" viewBox="0 0 48 50" fill="none" xmlns="http://www.w3.org/2000/svg">
<path fill-rule="evenodd" clip-rule="evenodd" d="M32.6966 13.5355C33.1196 13.1857 33.5419 12.8364 33.4949 12.1774C33.4306 11.1902 32.9167 10.3747 32.3172 9.58068C30.9253 7.71359 30.5185 5.65335 31.4392 3.44289C31.9317 2.26254 32.8097 1.44703 33.966 0.953433C34.9938 0.524216 35.936 0.824668 36.3643 1.6831C36.7711 2.49861 36.4713 3.33558 35.5505 3.93649C34.2872 4.752 34.0302 5.93234 34.9296 7.3273C35.0586 7.53589 35.1901 7.74124 35.321 7.94572L35.3211 7.94594C35.8636 8.79322 36.3964 9.62542 36.7069 10.6108C37.4135 12.9071 36.5356 15.2463 34.5013 16.4267C34.1801 16.5984 33.8589 16.7486 33.4949 16.7486C32.7883 16.7486 32.2743 16.3838 31.996 15.7399C31.7176 15.0961 31.7818 14.4523 32.2529 13.9372C32.3854 13.7929 32.5411 13.6642 32.6966 13.5355ZM36.557 21.1695C38.4199 21.8992 40.24 21.7919 42.1244 21.5773C45.3364 21.2339 47.9059 23.5731 47.8845 26.8137C47.8845 30.1187 46.3214 32.8013 44.1586 35.1191C40.7968 38.7674 36.6212 40.6345 31.6105 40.5916C28.8276 40.563 26.0542 40.5725 23.2777 40.582C21.8882 40.5868 20.4979 40.5916 19.1053 40.5916L18.9866 40.5918C18.5126 40.5934 18.0428 40.5949 17.6278 40.377C17.0068 40.0336 16.6856 39.4756 16.7284 38.7889C16.7712 38.0807 17.1567 37.5871 17.7991 37.3081C18.3328 37.0901 18.9031 37.0917 19.4594 37.0932L19.5978 37.0935C21.0459 37.0935 22.4965 37.0958 23.9478 37.0982H23.9489H23.95H23.9511H23.9522C26.8558 37.103 29.7626 37.1078 32.6598 37.0935C37.4992 37.072 42.7025 33.1876 44.2015 28.5735C44.3942 27.9726 44.4798 27.3717 44.437 26.7708C44.3728 25.569 43.6233 24.8179 42.4242 24.9252C42.204 24.9455 41.9842 24.9674 41.7646 24.9893C40.3614 25.1291 38.9677 25.2679 37.542 24.9896C35.4007 24.5818 33.4949 23.6804 31.6962 22.4572C27.9917 19.9463 24.8868 16.813 21.9746 13.4651C21.2038 12.5637 20.3258 11.7912 19.298 11.1902C16.2573 9.409 13.131 9.68799 10.1974 12.2633C6.00044 15.9546 4.41587 20.8262 4.80131 26.3631C4.9512 28.6379 5.05826 28.6164 7.26382 28.1014C11.525 27.1142 14.9725 28.6594 17.949 31.578C18.6474 32.258 19.2528 33.0684 19.8519 33.8703L19.9832 34.046C20.6684 34.9688 20.5828 35.9775 19.8547 36.5355C19.0839 37.1364 17.9704 36.9647 17.3066 36.0848C16.0218 34.3894 14.5871 32.8657 12.6385 31.9214C10.1118 30.6981 6.38588 31.342 4.33022 33.2734C4.07326 33.5095 3.90196 33.6812 4.07326 34.0889C4.97261 36.235 8.29165 37.7373 10.4115 36.9432C10.4274 36.9362 10.4435 36.9292 10.4595 36.9223L10.4596 36.9222L10.4597 36.9222L10.4605 36.9219C10.6394 36.8446 10.8256 36.7641 10.904 36.4496C10.1955 36.0863 9.47417 36.1042 8.75973 36.122C8.54581 36.1274 8.33251 36.1327 8.12034 36.1277C6.87838 36.1063 6.12892 35.5483 6.06468 34.5611C5.97903 33.5524 6.72849 32.7584 7.94904 32.6511C10.3259 32.4579 12.5743 32.973 14.6085 34.2177C16.0218 35.0976 16.1503 36.235 15.0796 37.5441C11.6107 41.7719 6.06468 41.5788 2.31738 37.4583C1.54651 36.6213 0.904117 35.6556 0.390202 34.6255C-0.273605 33.2949 -0.123713 32.415 1.09684 31.4278C1.71782 30.9127 1.91053 30.4621 1.76064 29.6251C0.668573 23.4873 1.5251 17.7143 5.20816 12.5637C7.30664 9.64507 10.0047 7.56337 13.6235 6.91955C17.2423 6.27572 20.4543 7.24146 23.1095 9.7953C24.0683 10.7231 24.9817 11.702 25.8964 12.6823L25.8964 12.6824L25.8965 12.6824C26.7591 13.6069 27.6229 14.5327 28.5271 15.418C30.9039 17.7358 33.3878 19.9033 36.557 21.1695ZM24.48 41.4071H40.861C42.5526 41.4071 43.4306 41.9865 43.4306 43.1669C43.452 44.3258 42.6169 44.9052 40.8824 44.9052C32.1673 44.9052 23.4735 44.9052 14.7584 44.9267C14.6744 44.9267 14.5744 44.9118 14.4703 44.8963C14.1233 44.8447 13.7306 44.7864 13.7306 45.2486C13.7306 45.6931 14.2688 45.6851 14.673 45.6791C14.7177 45.6784 14.7607 45.6778 14.8012 45.6778H35.0366C35.126 45.6778 35.2153 45.6766 35.3045 45.6754C35.75 45.6694 36.193 45.6635 36.6212 45.8066C37.4991 46.0855 37.7561 46.7508 37.6919 47.5663C37.6276 48.3604 37.1351 48.854 36.3214 48.9613C36.112 48.9936 35.8905 48.9894 35.6751 48.9854H35.675H35.6748C35.604 48.9841 35.5338 48.9828 35.4649 48.9828C33.6562 48.9828 31.8461 48.9814 30.0353 48.9801C24.6004 48.976 19.1595 48.972 13.7306 49.0042C12.6813 49.0042 11.8676 48.7467 11.2895 47.8239C11.1076 47.5276 10.8834 47.2435 10.6587 46.9586C10.4601 46.7069 10.2611 46.4546 10.0903 46.1928C9.51219 45.313 8.82697 44.7764 7.64925 44.8623C6.53576 44.9267 5.7863 44.1755 5.74348 43.2527C5.70065 42.1797 6.40729 41.45 7.67066 41.4285C9.72702 41.3963 11.7954 41.4004 13.8578 41.4044H13.8598H13.8618H13.8638H13.8658C14.5497 41.4057 15.2328 41.4071 15.9147 41.4071H24.48ZM20.6042 18.165C18.4201 17.2422 15.8077 17.9504 14.3516 19.8604C12.9597 21.6846 12.9169 24.5389 14.2445 26.2772C15.7862 28.273 18.3558 29.0027 20.647 28.037C21.3537 27.7365 21.8676 27.8653 22.4243 28.273C24.2016 29.5607 26.1288 30.5264 28.2059 31.2346C32.3172 32.6296 36.2786 32.1145 40.2186 30.5694C40.9038 30.3118 41.3107 29.7968 41.3107 29.0027C41.3107 28.3374 41.0109 27.8438 40.4327 27.5219C39.7689 27.1571 39.1265 27.3502 38.4627 27.5648C36.7711 28.1657 35.0366 28.5735 33.8375 28.5306C29.9831 28.5306 27.0924 27.4361 24.48 25.5261C23.9018 25.0968 23.7091 24.6032 23.7947 23.8736C24.1588 21.3197 22.8954 19.1093 20.6042 18.165ZM18.5699 25.0325C17.5207 25.0325 16.707 24.174 16.707 23.0795C16.707 22.0279 17.4565 21.2554 18.5271 21.2554C19.6192 21.2554 20.4757 22.0709 20.4757 23.101C20.4543 24.174 19.5978 25.0539 18.5699 25.0325ZM25.7005 9.30168C26.0003 9.66651 26.2787 10.0528 26.086 10.5249C26.0003 11.6624 26.4286 12.392 27.3493 12.5852C28.3343 12.7998 28.9767 12.3277 29.3836 11.4478C29.6834 10.8039 29.7476 10.1816 29.5977 9.47336C29.4053 8.54766 28.8843 7.84726 28.3456 7.12298C28.2848 7.04128 28.2238 6.95927 28.163 6.87661C27.3065 5.73918 27.4564 4.79491 28.5485 3.91501C29.4906 3.14242 29.7048 2.32691 29.1909 1.53286C28.6555 0.717352 27.6705 0.545665 26.6427 1.08219C24.9725 1.94062 23.9446 4.15108 24.2016 6.1684C24.3515 7.39167 24.9725 8.3574 25.7005 9.30168ZM22.0817 4.79491C22.5314 5.93233 21.4179 7.09121 20.1759 6.87661C19.0196 6.662 18.056 5.11682 18.1417 3.61456C18.2702 2.02646 19.3837 0.760271 20.6684 0.760271C21.9318 0.760271 22.7241 1.89769 22.1459 3.03512C21.8247 3.67894 21.8247 4.12962 22.0817 4.79491Z" fill="url(#paint0_linear)"/>
<defs>
<linearGradient id="paint0_linear" x1="23.9423" y1="0.75946" x2="23.9423" y2="63.6899" gradientUnits="userSpaceOnUse">
<stop stop-color="#C7AE96"/>
<stop offset="1" stop-color="#C7AE96" stop-opacity="0"/>
</linearGradient>
</defs>
</svg>
