<svg width="50" height="52" viewBox="0 0 50 52" fill="none" xmlns="http://www.w3.org/2000/svg">
<path d="M35.6739 0.0967442C37.9854 -0.0624542 39.7634 1.12016 41.3414 2.80312C42.9861 4.57704 43.0306 4.5543 44.742 2.8486C44.8531 2.73489 44.942 2.64392 45.0531 2.53021C45.9421 1.73421 47.0756 1.6205 47.7646 2.25729C48.4758 2.91683 48.3869 4.16768 47.5646 5.12287C47.5424 5.14561 47.5201 5.16835 47.4979 5.21384C45.6754 7.26067 45.5643 7.37439 47.5646 9.14831C50.8762 12.1049 50.854 17.9042 47.2312 20.8608C46.4533 21.4976 45.7866 22.2708 45.0753 22.9758C44.3863 23.6354 43.5418 24.0447 42.6083 24.1584C41.6971 24.2949 40.9858 23.9538 40.6747 23.0213C40.3858 22.1116 40.6302 21.3156 41.497 20.929C43.1862 20.1557 44.3197 18.723 45.5198 17.4039C46.8089 15.9711 46.8312 14.2199 45.7866 12.6052C45.1865 11.6727 44.3197 11.0132 43.5862 10.1945C43.2751 9.83059 42.9639 9.85333 42.6528 10.1945C42.4305 10.4446 42.186 10.6948 41.9193 10.8995C41.097 11.559 39.9857 11.5363 39.3856 10.8767C38.8077 10.24 38.83 9.17105 39.4078 8.35232C40.408 6.96502 40.408 6.96502 39.23 5.75966C38.7633 5.28206 38.2743 4.78173 37.7409 4.3951C36.1629 3.28071 34.4738 3.3262 33.0513 4.62253C32.1623 5.41852 31.34 6.30548 30.5843 7.23793C29.3174 8.78443 29.2508 10.3992 30.4732 11.9911C32.1845 14.2427 34.3626 16.0393 36.2518 18.1089C37.2742 19.246 38.5188 20.1557 39.2078 21.6113C40.6969 24.727 40.2079 28.002 37.7854 30.4809C37.0742 31.2087 36.3852 31.9364 35.6739 32.6642C34.8516 33.5057 33.8959 34.1652 32.7402 34.4381C31.7845 34.6883 31.051 34.2789 30.651 33.3692C30.2731 32.4822 30.5176 31.5725 31.34 31.2314C32.9402 30.5264 34.007 29.2073 35.1628 28.002C36.8519 26.2735 36.9408 24.0902 35.3183 22.3163C33.0513 19.8601 30.6732 17.4494 28.2728 15.0841C26.5615 13.4012 24.4056 13.4922 22.7165 15.1751C22.1386 15.7437 21.5607 16.3577 20.9829 16.949C19.1826 18.8139 19.1604 21.0882 20.9606 22.9758C23.2276 25.3638 25.5836 27.6608 27.8283 30.0715C30.8288 33.301 30.651 38.0769 27.4727 41.1244C26.7171 41.8522 25.9836 42.6027 25.2057 43.285C22.4275 45.7185 18.138 45.6047 15.4709 43.0348C14.8486 42.4435 14.2485 41.8295 13.6707 41.1927C13.1817 40.6469 12.7594 40.6923 12.2927 41.2154C11.5815 41.9887 10.848 42.7392 10.0924 43.4669C9.02554 44.5131 8.22542 44.5813 7.04747 43.7398C5.91397 42.9439 4.93604 43.0121 4.09147 43.9673C3.33581 44.8315 3.31358 45.8777 4.0248 46.7419C4.86937 47.7426 5.84729 47.9018 6.98079 47.1512C7.13637 47.0603 7.29195 46.9238 7.44753 46.8329C8.33655 46.3098 9.29224 46.4462 9.84788 47.174C10.3813 47.879 10.2924 48.9024 9.62563 49.6529C8.15874 51.2904 4.95827 51.6998 2.91352 50.5172C0.402036 49.0844 -0.642564 45.9686 0.402036 43.1258C1.33551 40.6241 4.15815 39.1231 6.84744 39.7144C8.31432 40.0328 9.18112 39.6462 10.0479 38.3271C10.3146 37.9177 10.2035 37.6221 9.91456 37.3264C9.35892 36.7579 8.80328 36.212 8.26987 35.6435C5.18052 32.3913 5.31388 27.4561 8.60325 24.4086C9.13667 23.931 9.58118 23.3852 10.0701 22.8849C11.4259 21.4748 13.0484 20.6788 14.982 20.5651C15.5821 20.5196 16.0044 20.3377 16.0266 19.6781C16.071 16.9718 17.6268 15.1296 19.3604 13.3557C21.0051 11.6955 22.7831 10.3309 25.2057 10.2172C25.7836 10.1945 26.0503 9.89882 26.0725 9.28477C26.2059 6.80582 27.406 4.94092 29.2063 3.37168C29.8064 2.87135 30.2509 2.21181 30.8732 1.71147C32.2734 0.551597 33.807 -0.016969 35.6739 0.0967442ZM20.8717 41.4883C21.3385 41.4883 22.0719 41.2154 22.672 40.6923C23.4277 40.0328 24.1611 39.3278 24.8501 38.6C27.0504 36.3712 27.006 34.2334 24.7834 32.0047C22.7387 29.9806 20.7384 27.911 18.7381 25.8187C16.56 23.5444 14.493 23.5444 12.2927 25.7959C11.8704 26.228 11.4481 26.6601 11.0258 27.0922C9.04776 29.1391 8.91441 31.1177 10.8258 33.1873C13.0484 35.6207 15.4043 37.9177 17.7157 40.2375C18.4936 40.988 19.4049 41.4883 20.8717 41.4883Z" fill="url(#paint0_linear)"/>
<defs>
<linearGradient id="paint0_linear" x1="25" y1="0.0823975" x2="25" y2="66.7549" gradientUnits="userSpaceOnUse">
<stop stop-color="#C7AE96"/>
<stop offset="1" stop-color="#C7AE96" stop-opacity="0"/>
</linearGradient>
</defs>
</svg>
