<svg width="41" height="47" viewBox="0 0 41 47" fill="none" xmlns="http://www.w3.org/2000/svg">
<path fill-rule="evenodd" clip-rule="evenodd" d="M18.5303 6.95032L18.5303 6.95203C18.5326 7.75204 18.5349 8.5528 18.5349 9.35585C18.5143 11.7233 18.4938 14.0907 18.4938 16.4169C18.4938 17.9403 19.0484 18.702 20.1165 18.7226C21.2051 18.7432 21.7597 18.0227 21.8008 16.4993V16.2934V2.52122C21.8008 2.13008 21.7597 1.69777 21.6776 1.30664C21.4927 0.442014 20.9176 0.0508753 20.0343 0.0920478C19.0279 0.153806 18.5554 0.771394 18.5349 2.15067C18.5212 3.75509 18.5258 5.35037 18.5303 6.94868V6.94895V6.94922V6.94949V6.94977V6.95004V6.95032ZM20.1165 46.3493H6.76519C5.16303 46.3493 4.77276 45.917 4.52627 44.3319C4.04357 41.2645 3.5506 38.2023 3.05763 35.1401L3.05759 35.1399C2.56463 32.0778 2.07167 29.0156 1.58898 25.9484C1.21385 23.6203 0.858988 21.2922 0.503037 18.9569L0.503025 18.9568C0.352236 17.9676 0.201251 16.977 0.0484483 15.9846C-0.177497 14.4407 0.377096 13.6378 1.91763 13.5761C3.64544 13.5054 5.38839 13.5257 7.12048 13.5459C7.40635 13.5492 7.69192 13.5526 7.97708 13.5555C9.04518 13.5555 9.74356 14.0701 10.1338 15.12C10.433 15.9307 10.768 16.7293 11.1034 17.5289L11.1034 17.529C11.3898 18.2117 11.6765 18.8951 11.9414 19.5872C12.1673 20.1842 12.496 20.493 13.1533 20.4313C14.6739 20.3217 16.1946 20.3567 17.7153 20.3918C19.3373 20.4291 20.9593 20.4665 22.5814 20.3283C23.6862 20.2373 24.7911 20.3028 25.8959 20.3683C26.2905 20.3916 26.6851 20.415 27.0797 20.4313C27.7165 20.4519 28.0862 20.2048 28.3122 19.6078C28.5769 18.9308 28.8579 18.2537 29.1388 17.5767C29.4901 16.7303 29.8413 15.884 30.1608 15.0377C30.51 14.1319 31.0851 13.5966 32.0505 13.5761C32.3102 13.571 32.5702 13.5656 32.8304 13.5603L32.8307 13.5603L32.831 13.5603L32.8313 13.5603L32.8316 13.5602L32.8319 13.5602L32.8322 13.5602L32.8324 13.5602C34.6916 13.5219 36.5628 13.4833 38.4181 13.5555C39.8765 13.6172 40.6159 14.6877 40.164 15.7994C39.8765 16.5199 39.3219 16.8287 38.5413 16.8493C38.0278 16.8493 37.5143 16.8538 37.0008 16.8584C35.9738 16.8676 34.9467 16.8767 33.9197 16.8493C33.2213 16.8287 32.8516 17.0757 32.6051 17.7139C32.3631 18.3388 32.1043 18.9553 31.8458 19.571L31.8458 19.5711L31.8457 19.5711L31.8457 19.5712L31.8457 19.5713L31.8457 19.5713L31.8456 19.5714L31.8456 19.5714L31.8456 19.5715L31.8456 19.5715C31.5336 20.3145 31.2221 21.0564 30.9413 21.8106C30.4689 23.0869 29.6678 23.6839 28.23 23.6633C22.7251 23.6016 17.2203 23.6221 11.6949 23.6633C10.5241 23.6633 9.82572 23.1692 9.39437 22.1399C9.23372 21.7498 9.06562 21.3615 8.89736 20.9728L8.89735 20.9728L8.89733 20.9728L8.89731 20.9727L8.8973 20.9727L8.89728 20.9726L8.89726 20.9726L8.89724 20.9726C8.50622 20.0693 8.11431 19.164 7.81275 18.2285C7.46356 17.1169 6.82681 16.7669 5.69708 16.8081C5.35288 16.8216 5.05938 16.8266 4.81006 16.8308H4.81004C4.10288 16.8429 3.7513 16.8489 3.607 17.0249C3.46432 17.1989 3.52428 17.539 3.64354 18.2155L3.64354 18.2156L3.64355 18.2156C3.68595 18.4562 3.73586 18.7393 3.78682 19.0726C4.61871 24.5846 5.48527 30.0966 6.35182 35.6086C6.64067 37.4459 6.92952 39.2831 7.21708 41.1204C7.23486 41.2541 7.2642 41.3839 7.29341 41.5132C7.33168 41.6826 7.36975 41.8511 7.3814 42.0262C7.42248 42.8703 7.87437 43.0967 8.67545 43.0967C16.2754 43.0761 23.8754 43.0761 31.4754 43.0967C32.2765 43.0967 32.6462 42.8085 32.7694 42.0262C32.9889 40.5353 33.2301 39.0516 33.4716 37.5665L33.4716 37.5663L33.4716 37.5662L33.4717 37.566L33.4717 37.5659L33.4717 37.5657L33.4717 37.5656L33.4719 37.5647C33.637 36.5488 33.8023 35.5322 33.9608 34.5123C34.3175 32.233 34.6803 29.9538 35.0426 27.6779L35.0428 27.6762L35.0432 27.6742L35.0433 27.6732L35.0435 27.6721L35.0436 27.6711L35.0438 27.6701C35.3486 25.7551 35.6531 23.8424 35.9532 21.9341C35.9875 21.7076 36.0171 21.4812 36.0468 21.2547L36.0468 21.2546C36.1062 20.8017 36.1655 20.3489 36.2613 19.896C36.4873 18.805 37.3089 18.208 38.2332 18.4138C39.1575 18.5991 39.6711 19.4843 39.5067 20.5342C38.6029 26.1131 37.7197 31.6919 36.8365 37.2914C36.4918 39.4369 36.1631 41.5984 35.8363 43.7476L35.7067 44.5995C35.5219 45.8141 34.9878 46.2876 33.6938 46.3082C29.2159 46.3493 24.656 46.3493 20.1165 46.3493ZM19.1306 27.1011C23.3414 27.1835 27.5316 27.5128 31.6397 28.5216C33.2419 28.9127 33.8581 29.5715 33.6321 30.6214C33.4062 31.6919 32.523 32.083 30.8797 31.7124C26.3608 30.7037 21.7803 30.2302 17.1381 30.4567C14.6938 30.5802 12.3317 31.0537 9.94896 31.5477C9.73331 31.5889 9.51766 31.6455 9.30201 31.7021L9.30193 31.7021C9.08625 31.7588 8.87058 31.8154 8.65491 31.8565C7.71005 32.0006 6.95005 31.5477 6.74464 30.7243C6.5187 29.8185 6.90897 29.1803 7.73059 28.8098C8.96302 28.2745 10.2776 27.9863 11.5922 27.8011C11.921 27.7548 12.2501 27.707 12.5797 27.6592C14.7413 27.3457 16.9205 27.0297 19.1306 27.1011ZM23.6289 16.2115C23.8342 13.9071 24.0395 11.6078 24.2448 9.30848L24.2452 9.30466C24.4506 7.00422 24.656 4.70377 24.8614 2.39818C24.9024 1.94528 24.9641 1.51297 25.2722 1.14242C25.7241 0.627762 26.2786 0.298382 26.9976 0.524831C27.8397 0.813038 28.2505 1.4718 28.2095 2.35701C28.1929 2.59204 28.1767 2.8267 28.1606 3.06104C28.0564 4.57137 27.9532 6.06835 27.7576 7.56532C27.4723 9.70212 27.3077 11.8499 27.1436 13.9926L27.1436 13.9929C27.0831 14.7814 27.0228 15.5693 26.9565 16.3556C26.9154 16.788 26.8538 17.2409 26.6895 17.6526C26.4019 18.4554 25.7446 18.8672 24.923 18.7642C24.1219 18.6613 23.67 18.1055 23.5673 17.3026C23.5401 17.0571 23.5489 16.8115 23.558 16.56C23.5626 16.4319 23.5673 16.3023 23.5673 16.1704C23.5673 16.2115 23.5878 16.2115 23.6289 16.2115ZM16.7651 16.5821C16.7503 16.4586 16.7355 16.3351 16.7273 16.2116C16.6041 14.647 16.4603 13.0825 16.296 11.4973C16.2062 10.5142 16.1233 9.52876 16.0404 8.54255L16.0404 8.54212L16.0404 8.54179L16.0404 8.54165C15.8768 6.59572 15.713 4.64684 15.4949 2.70701C15.31 1.03953 14.6116 0.380768 13.5025 0.545458C12.4549 0.710148 12.003 1.65711 12.1673 3.28343C12.2248 3.81982 12.2831 4.35576 12.3414 4.89146C12.6793 7.9948 13.0162 11.0898 13.1738 14.2147C13.2354 15.3058 13.3998 16.3969 13.5846 17.4673C13.7489 18.3731 14.4679 18.8466 15.3922 18.7437C16.2549 18.6613 16.7889 18.0438 16.8095 17.138C16.8095 16.9527 16.7873 16.7674 16.7651 16.5822L16.7651 16.5821ZM10.75 11.0645C10.75 12.0526 10.1749 12.7937 9.3533 12.8967C8.51114 12.9996 7.58681 12.382 7.48411 11.5174C7.25374 9.45716 6.91634 7.42758 6.57745 5.38898L6.57744 5.38897L6.57744 5.38896L6.57744 5.38895L6.57735 5.3884L6.57729 5.38802L6.57722 5.38764C6.52338 5.06375 6.4695 4.73964 6.41601 4.41514C6.23114 3.26231 6.95006 2.33593 7.91546 2.233C8.81924 2.13007 9.53816 2.76824 9.72303 3.94165C10.0158 5.83291 10.2829 7.73709 10.5446 9.60304L10.5447 9.60365L10.5449 9.60544L10.5454 9.60878C10.6139 10.0969 10.682 10.5825 10.75 11.0645ZM29.7348 10.3341L29.6473 11.0234C29.5446 11.9292 30.0992 12.7526 30.8797 12.8967C31.763 13.0614 32.6873 12.5056 32.8516 11.5175C33.2624 9.02652 33.6321 6.515 33.9403 4.00348C34.043 3.13886 33.55 2.45951 32.6667 2.25365C31.763 2.04779 31.1467 2.52127 30.7976 3.32413C30.6743 3.61234 30.5716 3.90055 30.5305 4.20934C30.2537 6.24426 29.9934 8.29579 29.7348 10.3341ZM38.9172 7.63128L38.9171 7.63171C38.7047 8.87594 38.4719 10.2393 38.1921 11.5792C37.9867 12.5261 37.0829 13.0614 36.2613 12.8761C35.3781 12.6702 34.844 11.9086 35.0084 10.9204C35.2959 9.19118 35.6246 7.48252 35.9943 5.77386C36.1997 4.76514 36.8775 4.31224 37.8429 4.43576C38.7262 4.53869 39.1781 5.17686 39.1165 6.4738C39.0515 6.84416 38.9854 7.23157 38.9172 7.63128ZM2.4106 4.43575C1.52736 4.62102 1.19872 5.23861 1.19872 6.43261C1.25724 6.76651 1.31774 7.11722 1.38043 7.48063C1.60377 8.77522 1.85489 10.2309 2.14358 11.6615C2.34898 12.5673 3.23222 13.0408 4.0333 12.8761C4.87546 12.6908 5.47114 11.9497 5.32735 11.0439C5.03979 9.21175 4.6906 7.40016 4.27979 5.58858C4.07438 4.6622 3.31439 4.25047 2.4106 4.43575Z" fill="url(#paint0_linear)"/>
<defs>
<linearGradient id="paint0_linear" x1="20.148" y1="0.0891113" x2="20.148" y2="60.4309" gradientUnits="userSpaceOnUse">
<stop stop-color="#C7AE96"/>
<stop offset="1" stop-color="#C7AE96" stop-opacity="0"/>
</linearGradient>
</defs>
</svg>
