<svg width="51" height="38" viewBox="0 0 51 38" fill="none" xmlns="http://www.w3.org/2000/svg">
<path fill-rule="evenodd" clip-rule="evenodd" d="M28.7624 18.7634C31.3115 16.2539 33.0259 13.3374 33.0936 9.65228C33.1161 8.38622 33.0484 7.14276 32.6198 5.96713C31.537 2.91501 29.4617 0.880269 26.1682 0.495928C22.8071 0.111587 20.055 1.40026 18.4308 4.42977C16.7164 7.64014 16.7841 11.0088 18.3857 14.287C18.9948 15.5078 19.6715 16.6835 20.9122 17.3843C21.792 17.8817 22.6266 17.7913 23.2582 17.0452C23.8673 16.3217 23.7996 15.5078 23.2357 14.7618C23.1457 14.6458 23.041 14.5445 22.9342 14.4411C22.8537 14.3632 22.7719 14.284 22.6943 14.1965C20.6415 11.9357 20.2129 8.45404 21.6792 6.01235C22.5815 4.5202 23.935 4.00021 25.6043 4.11325C27.1608 4.20369 28.1759 4.97237 28.8301 6.37408C30.1836 9.26794 29.4617 12.727 26.9126 15.5078C26.078 16.4348 25.108 17.2034 24.0929 17.9269C22.965 18.7182 22.7169 19.7582 23.3259 20.6399C23.9124 21.499 24.9727 21.5895 26.1231 20.866C27.0706 20.2556 27.9503 19.5547 28.7624 18.7634ZM13.3327 37.5961H25.4013H31.334C31.9949 37.5961 32.6583 37.5986 33.3225 37.6012H33.323C34.6537 37.6062 35.9878 37.6112 37.3119 37.5961C38.7782 37.5735 39.4775 36.8953 39.4549 35.584C39.4435 35.0736 39.4335 34.5617 39.4235 34.0488C39.394 32.5396 39.3644 31.021 39.297 29.5024C39.0714 23.8277 37.357 21.2956 31.4694 18.5826C30.5896 18.1756 29.8452 18.4921 29.2812 19.2382C29.1581 19.411 29.0686 19.5972 28.9797 19.7821C28.9057 19.9361 28.8321 20.0892 28.7399 20.233C27.9052 21.5895 26.845 22.5164 25.108 22.4486C23.5064 22.3808 22.5138 21.4764 21.7469 20.1652C21.6982 20.0823 21.6506 19.9984 21.6029 19.9143C21.4295 19.6085 21.255 19.3007 21.025 19.0347C20.619 18.56 20.055 18.2661 19.4234 18.4921C16.8066 19.3965 14.4832 20.8208 12.8815 23.0816C11.0318 25.7042 11.1446 28.7789 11.4153 31.8084C11.483 32.7354 12.2048 33.1423 13.1071 33.0971C14.0095 33.0745 14.6411 32.6223 14.7764 31.718C14.8731 31.1368 14.8703 30.5223 14.8676 29.9031V29.9029V29.9026V29.9024C14.8671 29.7993 14.8667 29.696 14.8667 29.5928C14.8441 26.8798 15.566 24.5512 18.1376 23.1268C18.7466 22.7877 19.0625 22.7651 19.5587 23.3077C23.0327 27.1511 27.5217 27.1285 31.0633 23.2625C31.0921 23.2307 31.121 23.1971 31.1501 23.1631C31.3491 22.931 31.5635 22.6809 31.898 22.8782L32.0535 22.9745C33.4231 23.8221 34.7793 24.6615 35.214 26.3824C35.5902 27.8302 35.6653 29.3081 35.7405 30.7894C35.778 31.5287 35.8156 32.269 35.8908 33.0067C35.9584 33.7753 35.5524 33.9788 34.8756 33.9788C33.0262 33.9562 31.1993 33.9562 29.3499 33.9562H29.3489H13.6711H13.3327C12.0469 34.024 11.1897 34.7701 11.1897 35.8101C11.1897 36.9405 11.9567 37.5961 13.3327 37.5961ZM47.9819 15.2818C47.9142 18.3113 46.8991 20.8661 44.35 22.6747C43.2898 23.4434 42.0942 23.873 40.7633 23.8504C39.5903 23.8277 38.9135 23.3304 38.8007 22.4034C38.6879 21.3861 39.2519 20.64 40.3347 20.3687C43.944 19.4643 45.5681 15.6435 43.6958 12.388C42.6807 10.6245 41.0565 9.85583 39.4775 10.421C37.8082 11.0315 36.7931 12.9079 37.1314 14.8297C37.2066 15.1914 37.3219 15.5531 37.4372 15.9148L37.4372 15.9149C37.4949 16.0957 37.5525 16.2766 37.6052 16.4574C37.921 17.6331 37.5375 18.5374 36.5675 18.8765C35.6201 19.2157 34.7177 18.7635 34.2215 17.6783C32.2138 13.2697 34.1989 8.18282 38.4398 6.89415C41.8235 5.85417 45.4554 7.595 47.0119 11.0089C47.7337 12.4558 47.9819 13.6766 47.9819 15.2818ZM6.27205 7.84361C3.76811 9.60705 2.75299 12.1618 2.68532 15.1461C2.59509 16.593 2.97857 17.9269 3.54253 19.193C4.60275 21.8607 7.24204 23.7824 9.83622 23.8051C11.122 23.8277 11.8213 23.3077 11.9116 22.2451C12.0018 21.2277 11.3476 20.4816 10.1295 20.3234C9.24971 20.2103 8.55041 19.8712 7.94134 19.2608C5.866 17.226 5.68554 13.6539 7.60297 11.4383C8.41506 10.4888 9.45273 10.014 10.716 10.2627C11.9792 10.534 12.8364 11.3027 13.2876 12.5461C13.7613 13.88 13.5132 15.1235 13.062 16.4121C12.656 17.5652 13.062 18.4921 14.032 18.8538C14.9569 19.193 15.8818 18.7634 16.378 17.6782C17.3932 15.44 17.4834 13.1792 16.536 10.8957C14.8215 6.78102 9.88133 5.28887 6.27205 7.84361ZM50.6663 32.4415C50.7565 35.7876 50.5309 36.0815 47.5081 36.0136C46.8883 35.9959 46.272 36.0478 45.6564 36.0997C44.7037 36.1799 43.7528 36.26 42.7935 36.0815C41.5754 35.8554 40.8761 35.2223 40.8761 34.2502C40.8761 33.2554 41.6431 32.5094 42.9063 32.4189C43.9214 32.3511 44.9365 32.3511 45.9516 32.3737C46.7186 32.3963 47.057 32.0572 46.9668 31.2885C46.9457 31.1219 46.9259 30.9547 46.906 30.7874C46.6909 28.9783 46.4737 27.1513 44.8012 25.9303C44.711 25.8625 44.6433 25.7721 44.5756 25.6817C43.8086 24.7321 43.741 23.7826 44.4403 23.0365C45.1621 22.2678 46.0644 22.2678 47.057 23.0591C49.0195 24.6191 49.9895 26.7442 50.3505 29.1633C50.5309 30.339 50.6888 31.5372 50.6663 32.4415ZM0.071293 31.7763C0.0485139 32.0683 0.0259095 32.3582 0.000911063 32.6449V33.4136C-0.021647 35.6518 0.36184 36.0361 2.59509 36.0587C4.19671 36.0587 5.82089 36.0813 7.42251 36.1492C8.73087 36.217 9.70087 35.584 9.81366 34.4762C9.94901 33.391 9.13692 32.5318 7.78343 32.4188C6.836 32.351 5.88856 32.351 4.96368 32.3962C3.97113 32.4414 3.6102 32.0119 3.74555 31.0397C3.99368 29.0502 4.3095 27.1285 5.97879 25.6815C6.88111 24.9129 6.81344 23.8503 6.04646 23.0816C5.32461 22.3581 4.39973 22.3355 3.54252 23.1042C2.75299 23.8051 2.03113 24.5511 1.5123 25.5007C0.404595 27.5029 0.233512 29.6964 0.071293 31.7763Z" fill="url(#paint0_linear)"/>
<defs>
<linearGradient id="paint0_linear" x1="25.3407" y1="0.42981" x2="25.3407" y2="48.9226" gradientUnits="userSpaceOnUse">
<stop stop-color="#C7AE96"/>
<stop offset="1" stop-color="#C7AE96" stop-opacity="0"/>
</linearGradient>
</defs>
</svg>
