<svg width="51" height="51" viewBox="0 0 51 51" fill="none" xmlns="http://www.w3.org/2000/svg">
<path fill-rule="evenodd" clip-rule="evenodd" d="M24.1361 11.6384C24.4484 10.856 24.0246 10.2524 23.5115 9.60414C21.3703 6.89924 21.7272 3.25543 24.2922 1.10939C24.9168 0.595237 25.5859 0.237563 26.4335 0.505818C27.6826 0.908201 28.0394 2.42831 27.1249 3.38956C25.3406 5.26735 25.2959 5.96034 26.7904 8.06168C27.7718 9.44766 28.2402 10.9231 27.4595 12.555C27.0803 13.3597 26.4335 13.8292 25.4744 13.628C24.6714 13.4268 24.0915 12.622 24.1361 11.6384ZM18.0755 40.506C19.605 40.5133 21.1345 40.5206 22.664 40.5206C27.1472 40.5429 31.6528 40.5653 36.1138 40.5653C36.3181 40.5653 36.522 40.5657 36.7255 40.5662H36.7255H36.7255H36.7256H36.7256H36.7256H36.7257H36.7257H36.7257H36.7258H36.7258C37.9438 40.5689 39.1478 40.5716 40.3518 40.4759C41.4893 40.4088 42.2031 39.5593 42.1585 38.5981C42.1138 37.5921 41.3555 36.9662 40.1733 36.9215H39.3926H6.73823C5.28841 36.9215 4.59696 36.4744 4.307 35.3119C3.99473 34.0601 4.44083 32.7635 5.60068 32.2941C7.0282 31.7352 7.45199 30.841 7.25125 29.3433C7.0505 27.9573 7.83118 26.8172 8.96873 26.7501C10.6193 26.6384 11.4 25.8783 11.6899 24.2464C11.9576 22.7039 13.0505 22.1004 14.5673 22.391C15.9725 22.6592 16.4632 22.4133 17.0431 21.1615C17.7792 19.5967 19.0506 19.1943 20.5004 20.0661C21.5487 20.692 22.3294 20.5803 23.177 19.6861C24.4483 18.3448 25.6528 18.3448 26.8796 19.6637C27.7049 20.5579 28.4632 20.692 29.5562 20.1108C31.2737 19.2166 32.2328 19.5296 33.0804 21.3627C33.5041 22.2792 34.1956 22.6145 35.1547 22.4804C37.2737 22.1898 38.1213 22.7263 38.5228 24.8276C38.7458 25.9454 39.3703 26.5042 40.441 26.6831C42.3592 27.0184 43.0283 27.8008 42.783 29.7233C42.6269 30.9528 43.0953 31.6681 44.1659 32.2046C46.2849 33.2553 46.4187 35.6473 44.4782 37.0109C43.3629 37.7933 43.0953 38.7098 43.7198 39.6487C44.3666 40.6323 45.3927 40.7441 46.5525 39.9841C50.099 37.6592 50.4782 32.7188 47.2886 29.9021C46.7756 29.455 46.5302 28.9856 46.3964 28.3149C45.9949 26.1913 44.9912 24.4476 42.9168 23.5758C42.1808 23.2628 41.7347 22.7934 41.4001 22.078C40.4633 20.0661 38.8573 18.926 36.6045 18.8142C36.0023 18.7919 35.6677 18.546 35.2885 18.1212C33.7718 16.3999 31.8982 15.6399 29.6008 16.1764C28.9762 16.3329 28.4409 16.2658 27.9056 15.9081C26.0097 14.701 24.1138 14.7681 22.2179 15.8858C21.6602 16.2211 21.1472 16.3552 20.5227 16.1988C18.3368 15.6846 16.4855 16.2658 14.9464 17.8977C14.5227 18.3448 14.0543 18.6354 13.4297 18.7248C11.0877 19.0825 9.37022 20.2896 8.45571 22.5251C8.23267 23.0616 7.80887 23.2852 7.31816 23.4864C5.37764 24.2911 4.24008 25.8112 3.79398 27.8008C3.57094 28.7844 3.19175 29.5221 2.43338 30.2151C0.626685 31.8693 0.135977 34.6637 1.07278 36.9215C2.00959 39.1793 3.70477 40.6323 6.60441 40.5653C10.4281 40.4695 14.2518 40.4877 18.0755 40.506ZM47.8908 42.0407H25.0283C17.3554 42.0407 9.7048 42.0407 2.07651 42.0184C0.693609 42.0184 0.0244612 42.5549 0.0021563 43.6503C-0.0424536 44.8127 0.604389 45.4163 2.0096 45.4834C2.54492 45.5057 3.01332 45.5504 3.39251 46.0422C3.71607 46.4619 4.064 46.8571 4.41031 47.2505L4.41034 47.2506L4.41037 47.2506C4.8757 47.7792 5.3381 48.3045 5.73452 48.8813C6.51519 50.0213 7.54122 50.3567 8.87952 50.3567C19.6751 50.3343 30.4484 50.3343 41.2217 50.3343C41.7124 50.3343 42.2031 50.312 42.6715 50.2225C43.6529 50.0213 44.1436 49.3507 44.0767 48.3671C44.0098 47.4282 43.4075 46.8917 42.493 46.7576C42.1914 46.724 41.8771 46.7282 41.5691 46.7324H41.5691H41.569H41.569H41.569H41.5689H41.5689H41.5689H41.5688H41.5688H41.5688C41.467 46.7338 41.366 46.7352 41.2663 46.7352H10.2624C9.86093 46.7352 9.43714 46.7352 9.03565 46.7129C8.45572 46.6682 7.92041 46.3105 7.94271 45.7963C7.96063 45.3833 8.38151 45.4463 8.73139 45.4987C8.81709 45.5115 8.89852 45.5237 8.96874 45.5281C12.1078 45.6533 15.2578 45.6251 18.4034 45.5969H18.4035C19.7505 45.5848 21.0967 45.5728 22.4409 45.5728C23.6127 45.5728 24.7825 45.5788 25.9515 45.5849C28.6765 45.5989 31.3971 45.613 34.1287 45.5504C37.4426 45.4706 40.7565 45.5048 44.0704 45.539C45.3959 45.5527 46.7215 45.5664 48.047 45.5728C49.5637 45.5728 50.4336 44.5668 50.0321 43.2255C49.7198 42.1749 48.8499 42.0407 47.8908 42.0407ZM34.3976 12.9034C34.4141 12.8026 34.4275 12.7205 34.4409 12.6667C34.4632 11.1466 34.0395 10.1183 33.3257 9.11231C31.9428 7.07804 31.9874 6.51918 33.7272 4.73081C34.2848 4.17194 34.4409 3.52366 34.1287 2.78596C33.8164 2.04826 33.2142 1.73529 32.4335 1.78C31.2513 1.86942 30.4707 2.58477 29.8684 3.52366C28.3294 5.96031 28.4186 8.5758 30.1807 10.923C30.6714 11.5937 30.9614 12.1972 30.8275 13.0691C30.6937 14.008 31.2513 14.6563 32.1435 14.8798C33.1026 15.1033 33.8387 14.7233 34.1956 13.7844C34.3047 13.4718 34.3594 13.1374 34.3976 12.9034ZM17.4669 12.9796C17.8015 12.0631 17.2885 11.3701 16.7531 10.6771C14.8126 8.19573 15.2141 4.44016 17.6453 2.42825C18.0468 2.11528 18.4929 1.84703 19.0283 1.80232C19.8312 1.73525 20.5227 1.9588 20.8796 2.74121C21.2364 3.52362 21.0134 4.19426 20.4335 4.77548C18.6714 6.54149 18.6268 7.05565 20.0543 9.13463C21.0357 10.5653 21.7271 12.0631 20.8796 13.8291C20.4558 14.7009 19.742 15.1257 18.7829 14.8798C17.8684 14.6339 17.4892 13.9409 17.4669 12.9796ZM17.6677 28.4715C18.939 28.4715 20.032 27.3985 20.032 26.1243C20.032 24.9395 18.8275 23.7771 17.623 23.7994C16.4632 23.8218 15.3256 24.9395 15.3033 26.1019C15.281 27.3091 16.4409 28.4715 17.6677 28.4715ZM20.2773 34.7084C19.0282 34.7308 17.8907 33.6578 17.8684 32.4283C17.8461 31.1988 18.9613 30.081 20.2104 30.0587C21.3926 30.0587 22.5078 31.1094 22.5747 32.2941C22.6193 33.546 21.5487 34.6861 20.2773 34.7084ZM32.1659 32.4952C32.2105 31.1763 31.1398 30.1033 29.7792 30.0809C28.5971 30.0586 27.5041 31.1316 27.4818 32.3387C27.4595 33.5906 28.5525 34.7083 29.8015 34.7083C31.0283 34.7307 32.1212 33.68 32.1659 32.4952ZM41.3109 31.0422C41.3109 32.2717 40.2848 33.2777 39.0358 33.3224C37.7644 33.3448 36.6045 32.2717 36.6268 31.0646C36.6268 29.8127 37.8313 28.695 39.1027 28.7174C40.2402 28.695 41.3109 29.8351 41.3109 31.0422ZM32.3889 28.4714C33.7049 28.4491 34.6863 27.4208 34.6863 26.1242C34.664 24.7382 33.8387 23.9334 32.4335 23.9334C31.0506 23.9111 30.0469 24.85 30.0469 26.1689C30.0469 27.4431 31.1175 28.5161 32.3889 28.4714ZM11.11 28.695C12.3591 28.695 13.452 29.8351 13.4297 31.0646C13.4074 32.2494 12.3368 33.3001 11.11 33.3001C9.81631 33.3001 8.74567 32.2717 8.74567 30.9975C8.76798 29.768 9.86092 28.695 11.11 28.695ZM25.006 27.5326C26.2327 27.5326 27.3257 26.4372 27.3257 25.1854C27.3257 23.8888 26.2997 22.8605 25.0283 22.8828C23.8238 22.9052 22.7532 23.9558 22.7532 25.163C22.7309 26.5266 23.69 27.5102 25.006 27.5326Z" fill="url(#paint0_linear)"/>
<defs>
<linearGradient id="paint0_linear" x1="25.0649" y1="0.414307" x2="25.0649" y2="65.5591" gradientUnits="userSpaceOnUse">
<stop stop-color="#C7AE96"/>
<stop offset="1" stop-color="#C7AE96" stop-opacity="0"/>
</linearGradient>
</defs>
</svg>
