<svg width="43" height="48" viewBox="0 0 43 48" fill="none" xmlns="http://www.w3.org/2000/svg">
<path fill-rule="evenodd" clip-rule="evenodd" d="M25.8846 3.48602C26.1516 3.1566 26.3365 2.80659 26.3571 2.33304C26.2954 1.71537 25.9873 1.18006 25.4121 0.912405C24.6725 0.603571 23.9741 0.747693 23.4194 1.30359C22.5771 2.16833 21.8581 3.13601 21.4472 4.28899C21.2624 4.80371 20.9953 5.05078 20.4201 5.13314C16.1266 5.68904 13.3327 9.848 14.8118 13.9452C15.3665 15.4482 15.3459 16.3335 14.2366 17.4247C13.497 18.1659 13.723 19.2366 14.442 19.7925C15.1405 20.3278 16.1266 20.1631 16.8045 19.3395C17.2975 18.7424 17.8522 18.2689 18.5712 17.9806C21.3445 16.8482 23.6865 17.3218 25.8229 19.4836C26.4598 20.1219 27.4253 20.266 28.0622 19.7925C28.7401 19.2983 28.925 18.3101 28.4114 17.4865C28.1649 17.0953 27.8362 16.7247 27.4664 16.4159C26.9528 15.9835 26.9323 15.5923 27.2404 14.9952C28.8428 11.8245 28.1238 8.50972 25.2888 6.40965C24.4055 5.77139 24.3849 5.27726 25.0423 4.53606C25.2336 4.33151 25.4012 4.11109 25.5696 3.88958C25.6724 3.75434 25.7756 3.6187 25.8846 3.48602ZM22.4539 8.50972C23.8919 9.04504 24.7342 10.301 24.6931 11.9275C24.7136 12.3804 24.5493 12.854 24.3849 13.3275C24.1179 14.0276 23.707 14.3776 22.9058 14.1717C21.7759 13.8628 20.6461 14.0481 19.5367 14.2334C18.8383 14.357 18.4479 14.0893 18.1398 13.5128C17.5235 12.3804 17.7084 10.4863 18.5301 9.53917C19.4751 8.44796 21.1186 8.01559 22.4539 8.50972ZM0.000165757 22.4896C0.0823385 18.763 1.84905 15.9011 4.70456 13.6363C6.65616 12.0921 8.85428 11.0009 11.2373 10.2391C12.5315 9.82737 13.497 10.198 13.7846 11.1862C14.0928 12.1539 13.5176 13.0187 12.2028 13.4098C10.847 13.8216 9.57329 14.4187 8.36124 15.1187C6.08095 16.457 4.17043 18.1453 3.53359 20.8424C3.12273 22.5719 3.16382 24.2602 4.31423 25.7426C5.58791 27.3691 7.293 27.9045 9.26514 27.4515C11.2373 26.978 12.4904 25.722 12.8807 23.6837C12.9203 23.4854 12.9504 23.287 12.9801 23.0909C13.012 22.88 13.0436 22.6717 13.0862 22.469C13.2916 21.5837 13.8668 21.1307 14.7913 21.1719C15.7362 21.213 16.2293 21.7484 16.3115 22.6749C16.4347 24.0337 16.7634 25.3102 17.8317 26.2779C19.3518 27.6368 21.098 27.9662 22.988 27.2868C24.8985 26.6074 25.8024 25.1044 26.0695 23.1484C26.0763 23.0798 26.0809 23.0111 26.0854 22.9425C26.0946 22.8053 26.1037 22.668 26.1311 22.5307C26.316 21.6866 26.8296 21.213 27.6924 21.1719C28.5141 21.1307 29.0688 21.5631 29.2947 22.3454C29.3857 22.6578 29.4355 22.9784 29.4858 23.3021C29.5151 23.4904 29.5446 23.6797 29.5824 23.869C30.0754 26.3397 32.2119 27.8015 34.9441 27.575C37.245 27.3691 39.0117 25.3514 39.0938 22.9631C39.2171 19.1747 37.0395 16.8688 34.0608 15.0981C32.9104 14.4187 31.6983 13.8628 30.4041 13.4716C30.1986 13.4098 30.0138 13.3481 29.8289 13.2657C28.8223 12.8128 28.3908 12.0098 28.6785 11.1451C28.9866 10.2391 29.8905 9.82737 30.9587 10.1774C33.4034 10.9803 35.7453 12.0304 37.7791 13.6569C40.8195 16.0864 42.6067 19.1542 42.4013 23.1484C42.237 26.6074 40.3881 29.0368 37.2655 30.334C34.184 31.6105 31.2669 31.0134 28.7812 28.7486C28.6242 28.6049 28.4972 28.4755 28.3889 28.365C27.8454 27.8108 27.7718 27.7357 26.7269 28.7486C23.6248 31.7752 18.5096 31.6516 15.4486 28.5015C14.8529 27.9045 14.5037 27.8633 13.8874 28.4809C11.5043 30.931 8.07364 31.6311 5.11542 30.3545C1.8696 28.9545 -0.0203774 26.0515 0.000165757 22.4896ZM21.324 47.0109C17.3592 47.1962 13.7025 46.3315 10.1485 44.8285C9.2446 44.4373 8.77211 43.7991 8.52559 42.8726C7.78603 40.0931 7.00539 37.3135 6.22475 34.5546C5.7728 32.9693 6.0604 32.0222 7.10811 31.7134C8.1969 31.4045 8.95699 32.0428 9.3884 33.6075C9.59383 34.3693 9.80611 35.1288 10.0184 35.8883C10.4429 37.4073 10.8675 38.9263 11.2373 40.4636C11.5249 41.699 12.2644 42.2755 13.4149 42.6255C17.9344 43.9638 22.4744 44.3138 27.0761 43.1196C27.1969 43.0886 27.3138 43.0587 27.4269 43.0298C29.4528 42.5116 30.2622 42.3046 30.6841 41.7837C30.9649 41.4371 31.0741 40.9517 31.2561 40.1432C31.3434 39.7548 31.4476 39.292 31.5956 38.7342C32.1092 36.8194 32.6433 34.9046 33.239 33.0105C33.6499 31.6928 34.903 31.2604 35.8891 32.0016C36.6081 32.5575 36.5465 33.3193 36.3411 34.0605C35.7248 36.2635 35.0879 38.4871 34.4511 40.6901C34.4055 40.8597 34.3517 41.0272 34.2982 41.1939L34.2982 41.194C34.1827 41.5536 34.0683 41.9098 34.0402 42.2755C33.917 43.8814 32.972 44.6844 31.5545 45.1785C28.2265 46.3727 24.8163 47.2374 21.324 47.0109Z" fill="url(#paint0_linear)"/>
<defs>
<linearGradient id="paint0_linear" x1="21.2086" y1="0.752808" x2="21.2086" y2="61.1391" gradientUnits="userSpaceOnUse">
<stop stop-color="#C7AE96"/>
<stop offset="1" stop-color="#C7AE96" stop-opacity="0"/>
</linearGradient>
</defs>
</svg>
