<svg width="31" height="46" viewBox="0 0 31 46" fill="none" xmlns="http://www.w3.org/2000/svg">
<path fill-rule="evenodd" clip-rule="evenodd" d="M29.97 9.42203C29.852 8.18105 29.6162 6.94007 29.2427 5.75819C29.0069 4.98996 28.4369 4.55661 27.5918 4.6551C26.7467 4.75359 26.216 5.40362 26.2553 6.30973C26.275 6.76279 26.3732 7.21584 26.4715 7.6689C26.8056 9.22505 26.9825 10.8009 26.9039 12.357C26.7663 15.036 26.1177 17.6164 24.9974 20.059C23.9164 22.403 23.3268 24.885 22.8551 27.4064C22.0493 31.6217 22.0886 35.8962 22.1279 40.151C22.1475 41.7071 21.8724 41.9829 20.3 41.9829H9.68674C8.25197 41.9829 7.9375 41.6677 7.95716 40.2495C7.96031 39.7767 7.96547 39.3038 7.97062 38.8311V38.831V38.831V38.8309V38.8309V38.8308V38.8307V38.8307C7.9977 36.3494 8.02475 33.8703 7.76062 31.4051C7.40684 28.017 6.91548 24.6486 5.59865 21.4378C4.53731 18.8968 3.53495 16.3163 3.27944 13.5389C3.14186 11.9631 3.22048 11.904 4.75351 11.904H23.1303C23.5233 11.904 23.9164 11.904 24.3095 11.8646C25.1547 11.7464 25.7443 11.2736 25.7836 10.4069C25.8229 9.52052 25.2726 9.00837 24.4471 8.83109C24.0737 8.75229 23.6609 8.73259 23.2678 8.73259H8.23232C7.80648 8.73259 7.38063 8.73041 6.95479 8.72822C6.10311 8.72384 5.25142 8.71946 4.39973 8.73259C3.75114 8.73259 3.39737 8.57501 3.57425 7.80679C3.79045 6.92037 4.00665 6.01426 4.14423 5.10815C4.30146 4.12325 4.79282 3.80808 5.79519 3.80808C12.6152 3.84748 19.4156 3.84748 26.2356 3.82778C27.5328 3.82778 28.26 3.19744 28.2404 2.17314C28.2011 1.22764 27.5918 0.774581 26.2749 0.754883H15.072H3.67253C2.45396 0.754883 2.02157 1.07005 1.68744 2.25194C1.61176 2.56167 1.54012 2.87141 1.46863 3.1805L1.46863 3.18051L1.46863 3.18053L1.46862 3.18054L1.46862 3.18055L1.46862 3.18057L1.46861 3.18058L1.46861 3.18059L1.46861 3.18059C1.31734 3.83465 1.16674 4.48579 0.979889 5.12785C-0.592454 10.4463 -0.277985 15.7254 1.9626 20.709C4.77317 26.9927 4.9304 33.5521 4.69455 40.2101C4.59628 42.8496 6.32585 45.0164 8.95953 45.0361C13.028 45.0558 17.0767 45.0558 21.1452 45.0361C23.602 45.0164 25.4495 43.1254 25.3709 40.6631C25.2922 37.8463 25.2726 35.0295 25.4691 32.2127C25.7246 28.3519 26.4125 24.6092 27.9849 21.0439C29.6162 17.3406 30.3827 13.4601 29.97 9.42203ZM19.8087 40.4663C20.929 40.4466 21.6169 39.895 21.6562 38.9889C21.6955 38.1222 21.0076 37.3343 19.9659 37.3146C16.7033 37.2555 13.4407 37.2555 10.1584 37.3146C9.07745 37.3343 8.4092 38.0631 8.44851 38.9495C8.48782 39.8359 9.21503 40.4466 10.2764 40.4663C11.3251 40.4794 12.3739 40.475 13.4169 40.4706H13.4173H13.4177H13.4181H13.4184H13.4188H13.4192H13.4196C13.9393 40.4684 14.4576 40.4663 14.9737 40.4663C15.5197 40.4663 16.0635 40.4685 16.605 40.4707H16.6052H16.6054H16.6056H16.6058H16.6059H16.6061H16.6063C17.6825 40.475 18.7499 40.4794 19.8087 40.4663ZM22.8944 13.2238C24.054 13.2238 24.8402 14.0314 24.8402 15.2133C24.8402 16.4149 23.9951 17.2422 22.7962 17.2422C21.5972 17.2225 20.7521 16.3755 20.7718 15.1936C20.7914 14.0511 21.6955 13.2041 22.8944 13.2238ZM9.64743 22.4425C10.7481 22.4425 11.7111 21.4576 11.7111 20.3546C11.7111 19.2515 10.7481 18.3257 9.60812 18.3454C8.50748 18.365 7.54442 19.3893 7.58373 20.4727C7.64269 21.5561 8.5861 22.4622 9.64743 22.4425ZM20.4573 18.3453C21.5776 18.365 22.5406 19.3499 22.521 20.4333C22.5013 21.4576 21.499 22.4425 20.4769 22.4425C19.3567 22.4425 18.3543 21.4182 18.3739 20.2758C18.3936 19.2318 19.3763 18.3059 20.4573 18.3453ZM9.33295 15.233C9.3526 14.0511 8.50747 13.2238 7.28891 13.2041C6.14896 13.2041 5.30382 14.0117 5.26451 15.1542C5.22521 16.3558 6.05069 17.2225 7.2496 17.2225C8.42885 17.2422 9.33295 16.3755 9.33295 15.233ZM15.0917 22.4819C14.0303 22.5016 13.0476 21.497 13.028 20.3939C13.028 19.2515 13.9517 18.3257 15.072 18.3454C16.153 18.365 17.1357 19.3697 17.1357 20.453C17.1357 21.4379 16.094 22.4622 15.0917 22.4819ZM19.6318 15.2133C19.6318 14.0708 18.767 13.2041 17.5681 13.2041C16.4282 13.2041 15.583 14.0511 15.583 15.1739C15.583 16.3952 16.4675 17.2619 17.686 17.2422C18.826 17.2225 19.6318 16.3558 19.6318 15.2133ZM10.4729 15.1937C10.4926 14.0709 11.3377 13.2239 12.458 13.2042C13.5979 13.1845 14.502 14.0709 14.502 15.2331C14.502 16.3756 13.5783 17.3211 12.4776 17.3014C11.3574 17.262 10.4533 16.3362 10.4729 15.1937Z" fill="url(#paint0_linear)"/>
<defs>
<linearGradient id="paint0_linear" x1="15.04" y1="0.754883" x2="15.04" y2="58.5345" gradientUnits="userSpaceOnUse">
<stop stop-color="#C7AE96"/>
<stop offset="1" stop-color="#C7AE96" stop-opacity="0"/>
</linearGradient>
</defs>
</svg>
