<svg width="63" height="467" viewBox="0 0 63 467" fill="none" xmlns="http://www.w3.org/2000/svg">
<g opacity="0.1">
<path d="M62.2961 457.216L62.2961 467L0.703907 467L0.703906 436.136L62.2961 436.136L62.2961 446.098L9.50279 446.098L9.50279 457.216L62.2961 457.216Z" fill="white"/>
<path d="M0.703904 407.517C0.703904 402.596 1.99441 398.949 4.57542 396.577C7.15642 394.146 10.9399 392.93 15.926 392.93L23.933 392.93C28.919 392.93 32.7025 394.146 35.2835 396.577C37.8645 398.949 39.155 402.596 39.155 407.517L39.155 412.142L62.2961 412.142L62.2961 421.926L0.703905 421.926L0.703904 407.517ZM9.50279 412.142L30.3562 412.142L30.3562 407.517C30.3562 405.976 29.9455 404.79 29.1243 403.96C28.3031 403.129 26.7779 402.714 24.5489 402.714L15.3101 402.714C13.081 402.714 11.5559 403.129 10.7346 403.96C9.91341 404.79 9.50279 405.976 9.50279 407.517L9.50279 412.142Z" fill="white"/>
<path d="M48.1299 372.299C50.359 372.299 51.9428 371.855 52.8813 370.965C53.7612 370.016 54.2011 368.771 54.2011 367.229C54.2011 365.688 53.7612 364.472 52.8813 363.583C51.9428 362.634 50.359 362.16 48.1299 362.16L14.8701 362.16C12.6411 362.16 11.0866 362.634 10.2067 363.583C9.26815 364.472 8.79888 365.688 8.79888 367.229C8.79888 368.771 9.26815 370.016 10.2067 370.965C11.0866 371.855 12.6411 372.299 14.8701 372.299L48.1299 372.299ZM15.486 382.083C10.5 382.083 6.68715 380.808 4.04748 378.259C1.34916 375.709 -4.15116e-06 372.032 -4.36111e-06 367.229C-4.57106e-06 362.426 1.34916 358.75 4.04748 356.2C6.68714 353.651 10.5 352.376 15.486 352.376L47.514 352.376C52.5 352.376 56.3422 353.651 59.0405 356.2C61.6802 358.75 63 362.426 63 367.229C63 372.032 61.6802 375.709 59.0405 378.259C56.3422 380.808 52.5 382.083 47.514 382.083L15.486 382.083Z" fill="white"/>
<path d="M0.7039 303.566C0.7039 298.645 1.9944 294.998 4.57541 292.626C7.15642 290.195 10.9399 288.979 15.926 288.979L23.933 288.979C28.919 288.979 32.7025 290.195 35.2835 292.626C37.8645 294.998 39.155 298.645 39.155 303.566L39.155 308.192L62.2961 308.192L62.2961 317.975L0.703901 317.975L0.7039 303.566ZM9.50279 308.192L30.3562 308.192L30.3562 303.566C30.3562 302.025 29.9455 300.839 29.1243 300.009C28.3031 299.178 26.7779 298.763 24.5489 298.763L15.3101 298.763C13.081 298.763 11.5559 299.178 10.7346 300.009C9.9134 300.839 9.50279 302.025 9.50279 303.566L9.50279 308.192Z" fill="white"/>
<path d="M26.6606 267.548L26.6606 254.117L35.4595 254.117L35.4595 267.548L53.4972 267.548L53.4972 250.648L62.2961 250.648L62.2961 277.332L0.703899 277.332L0.703898 250.648L9.50278 250.648L9.50279 267.548L26.6606 267.548Z" fill="white"/>
<path d="M39.331 209.096L47.514 209.096C52.5 209.096 56.3422 210.342 59.0405 212.832C61.6802 215.263 63 218.88 63 223.683C63 228.486 61.6802 232.133 59.0405 234.624C56.3422 237.055 52.5 238.27 47.514 238.27L15.486 238.27C10.5 238.27 6.68714 237.055 4.04747 234.624C1.34915 232.133 -1.04258e-05 228.486 -1.06357e-05 223.683C-1.08457e-05 218.88 1.34915 215.263 4.04747 212.832C6.68714 210.342 10.5 209.096 15.486 209.096L21.4693 209.096L21.4693 218.347L14.8701 218.347C12.6411 218.347 11.0866 218.821 10.2067 219.77C9.26815 220.659 8.79887 221.875 8.79887 223.417C8.79887 224.958 9.26815 226.203 10.2067 227.152C11.0866 228.042 12.6411 228.486 14.8701 228.486L48.1299 228.486C50.3589 228.486 51.9134 228.042 52.7933 227.152C53.6732 226.203 54.1131 224.958 54.1131 223.417C54.1131 221.875 53.6732 220.659 52.7933 219.77C51.9134 218.821 50.3589 218.347 48.1299 218.347L39.331 218.347L39.331 209.096Z" fill="white"/>
<path d="M0.703895 198.891L0.703894 168.649L9.50278 168.649L9.50278 178.878L62.2961 178.878L62.2961 188.662L9.50278 188.662L9.50278 198.891L0.703895 198.891Z" fill="white"/>
<path d="M48.1299 148.241C50.3589 148.241 51.9427 147.797 52.8813 146.907C53.7612 145.958 54.2011 144.713 54.2011 143.172C54.2011 141.63 53.7612 140.414 52.8813 139.525C51.9427 138.576 50.3589 138.102 48.1299 138.102L14.8701 138.102C12.6411 138.102 11.0866 138.576 10.2067 139.525C9.26814 140.414 8.79887 141.63 8.79887 143.172C8.79887 144.713 9.26814 145.958 10.2067 146.907C11.0866 147.797 12.6411 148.241 14.8701 148.241L48.1299 148.241ZM15.486 158.025C10.5 158.025 6.68714 156.75 4.04747 154.201C1.34915 151.651 -1.3945e-05 147.975 -1.4155e-05 143.172C-1.43649e-05 138.368 1.34915 134.692 4.04747 132.142C6.68713 129.593 10.5 128.318 15.486 128.318L47.514 128.318C52.5 128.318 56.3422 129.593 59.0405 132.142C61.6802 134.692 63 138.368 63 143.172C63 147.975 61.6802 151.651 59.0405 154.201C56.3422 156.75 52.5 158.025 47.514 158.025L15.486 158.025Z" fill="white"/>
<path d="M0.703891 100.435C0.703891 95.5132 1.99439 91.8665 4.5754 89.4946C7.15641 87.0634 10.9399 85.8479 15.926 85.8479L23.933 85.8479C28.919 85.8479 32.7025 87.0634 35.2835 89.4946C37.8645 91.8665 39.155 95.5132 39.155 100.435L39.155 105.06L62.2961 105.06L62.2961 114.844L0.703892 114.844L0.703891 100.435ZM9.50278 105.06L30.3561 105.06L30.3561 100.435C30.3561 98.8931 29.9455 97.7072 29.1243 96.8771C28.3031 96.0469 26.7779 95.6318 24.5489 95.6318L15.31 95.6318C13.081 95.6318 11.5559 96.0469 10.7346 96.8771C9.91339 97.7072 9.50278 98.8931 9.50278 100.435L9.50278 105.06Z" fill="white"/>
<path d="M62.2961 42.5358L62.2961 52.4087L51.1215 54.0987L51.1215 66.1063L62.2961 67.7962L62.2961 76.7796L0.70389 66.8178L0.703889 52.4977L62.2961 42.5358ZM42.7626 64.8611L42.7626 55.4329L11.6145 60.1469L42.7626 64.8611Z" fill="white"/>
<path d="M62.2961 21.08L62.2961 30.8639L0.703888 30.8639L0.703888 21.08L27.1005 21.08L27.1005 9.96185L0.703887 9.96185L0.703887 -3.07688e-08L62.2961 -2.72305e-06L62.2961 9.96185L35.8994 9.96185L35.8994 21.08L62.2961 21.08Z" fill="white"/>
</g>
</svg>
