<svg width="122" height="56" viewBox="0 0 122 56" fill="none" xmlns="http://www.w3.org/2000/svg">
<g filter="url(#filter0_d)">
<path d="M13 9H109L102 24L109 39H13L20 24L13 9Z" fill="#8C2828"/>
<path d="M43.7549 25.824V27.312C43.7549 28.2187 43.5309 28.9173 43.0829 29.408C42.6456 29.888 41.9949 30.128 41.1309 30.128C40.2669 30.128 39.6109 29.888 39.1629 29.408C38.7256 28.9173 38.5069 28.2187 38.5069 27.312V21.488C38.5069 20.5813 38.7256 19.888 39.1629 19.408C39.6109 18.9173 40.2669 18.672 41.1309 18.672C41.9949 18.672 42.6456 18.9173 43.0829 19.408C43.5309 19.888 43.7549 20.5813 43.7549 21.488V22.576H42.0909V21.376C42.0909 20.9707 42.0056 20.688 41.8349 20.528C41.6749 20.3573 41.4563 20.272 41.1789 20.272C40.9016 20.272 40.6776 20.3573 40.5069 20.528C40.3469 20.688 40.2669 20.9707 40.2669 21.376V27.424C40.2669 27.8293 40.3469 28.112 40.5069 28.272C40.6776 28.432 40.9016 28.512 41.1789 28.512C41.4563 28.512 41.6749 28.432 41.8349 28.272C42.0056 28.112 42.0909 27.8293 42.0909 27.424V25.824H43.7549ZM48.4068 25.536L47.8628 26.56V30H46.1028V18.8H47.8628V23.68L50.1668 18.8H51.9268L49.4788 23.792L51.9268 30H50.1188L48.4068 25.536ZM55.8158 30H54.0078V18.8H55.5758V25.888L56.2158 23.424L57.6558 18.8H59.5918V30H58.0078V22.112L57.2878 24.864L55.8158 30ZM67.2039 31.504V30H63.4439V31.504H61.7319V28.432H62.4199C62.5693 28.24 62.6706 28.032 62.7239 27.808C62.7879 27.584 62.8306 27.3067 62.8519 26.976L63.2519 18.8H68.1799V28.432H68.9479V31.504H67.2039ZM64.5799 26.944C64.5586 27.3707 64.5053 27.6907 64.4199 27.904C64.3453 28.1173 64.2333 28.2933 64.0839 28.432H66.3879V20.4H64.8999L64.5799 26.944ZM73.5124 25.536L72.9684 26.56V30H71.2084V18.8H72.9684V23.68L75.2724 18.8H77.0324L74.5844 23.792L77.0324 30H75.2244L73.5124 25.536ZM84.8094 30H83.0334L82.7294 27.968H80.5694L80.2654 30H78.6494L80.4414 18.8H83.0174L84.8094 30ZM80.7934 26.448H82.4894L81.6414 20.784L80.7934 26.448Z" fill="white"/>
</g>
<defs>
<filter id="filter0_d" x="0" y="0" width="122" height="56" filterUnits="userSpaceOnUse" color-interpolation-filters="sRGB">
<feFlood flood-opacity="0" result="BackgroundImageFix"/>
<feColorMatrix in="SourceAlpha" type="matrix" values="0 0 0 0 0 0 0 0 0 0 0 0 0 0 0 0 0 0 127 0"/>
<feOffset dy="4"/>
<feGaussianBlur stdDeviation="6.5"/>
<feColorMatrix type="matrix" values="0 0 0 0 0.366667 0 0 0 0 0.113056 0 0 0 0 0.113056 0 0 0 1 0"/>
<feBlend mode="normal" in2="BackgroundImageFix" result="effect1_dropShadow"/>
<feBlend mode="normal" in="SourceGraphic" in2="effect1_dropShadow" result="shape"/>
</filter>
</defs>
</svg>
