<svg width="92" height="20" viewBox="0 0 92 20" fill="none" xmlns="http://www.w3.org/2000/svg">
<path d="M7.28891 9.84675C7.66 9.40487 8.34 9.40487 8.71109 9.84675L13.6469 15.7243C14.1543 16.3284 13.7248 17.25 12.9358 17.25H3.06416C2.27524 17.25 1.84572 16.3284 2.35308 15.7243L7.28891 9.84675Z" fill="#8D8D8D"/>
<path d="M7.31792 5.73838C7.68556 5.34039 8.31444 5.34039 8.68209 5.73838L13.4884 10.9413C14.0378 11.5361 13.6159 12.5 12.8063 12.5L3.1937 12.5C2.38405 12.5 1.96223 11.5361 2.51162 10.9413L7.31792 5.73838Z" fill="#B8B8B8"/>
<path d="M7.28891 0.846754C7.66 0.40487 8.34 0.40487 8.71109 0.846753L13.6469 6.72427C14.1543 7.32842 13.7248 8.25 12.9358 8.25L3.06416 8.25C2.27524 8.25 1.84572 7.32842 2.35308 6.72427L7.28891 0.846754Z" fill="#EAEAEA"/>
<path d="M28.1218 5.50802V7.33957H24.2906V9.31818H27.1573V11.0963H24.2906V14.893H22V5.50802H28.1218Z" fill="white"/>
<path d="M32.2898 15C31.5576 15 30.8967 14.844 30.3073 14.5321C29.7268 14.2201 29.2669 13.7745 28.9276 13.1952C28.5971 12.6159 28.4319 11.9385 28.4319 11.1631C28.4319 10.3966 28.6016 9.72371 28.941 9.14438C29.2803 8.55615 29.7447 8.10606 30.3341 7.79412C30.9235 7.48217 31.5843 7.3262 32.3166 7.3262C33.0489 7.3262 33.7098 7.48217 34.2992 7.79412C34.8886 8.10606 35.353 8.55615 35.6923 9.14438C36.0317 9.72371 36.2013 10.3966 36.2013 11.1631C36.2013 11.9296 36.0272 12.607 35.6789 13.1952C35.3396 13.7745 34.8707 14.2201 34.2724 14.5321C33.683 14.844 33.0221 15 32.2898 15ZM32.2898 13.0214C32.7274 13.0214 33.098 12.861 33.4017 12.5401C33.7142 12.2193 33.8705 11.7602 33.8705 11.1631C33.8705 10.566 33.7187 10.107 33.4151 9.7861C33.1204 9.46524 32.7542 9.30481 32.3166 9.30481C31.8701 9.30481 31.4995 9.46524 31.2048 9.7861C30.9101 10.098 30.7628 10.557 30.7628 11.1631C30.7628 11.7602 30.9056 12.2193 31.1914 12.5401C31.4861 12.861 31.8523 13.0214 32.2898 13.0214Z" fill="white"/>
<path d="M39.7072 8.67647C39.9751 8.26649 40.31 7.94563 40.7119 7.7139C41.1137 7.47326 41.5602 7.35294 42.0514 7.35294V9.77273H41.4218C40.8503 9.77273 40.4216 9.8975 40.1359 10.1471C39.8501 10.3877 39.7072 10.8155 39.7072 11.4305V14.893H37.4166V7.43316H39.7072V8.67647Z" fill="white"/>
<path d="M50.1923 11.0428C50.1923 11.2567 50.1789 11.4795 50.1521 11.7112H44.9681C45.0038 12.1747 45.1511 12.5312 45.4101 12.7807C45.678 13.0214 46.004 13.1417 46.388 13.1417C46.9595 13.1417 47.3569 12.9011 47.5802 12.4198H50.0182C49.8932 12.91 49.6654 13.3512 49.335 13.7433C49.0135 14.1355 48.6072 14.443 48.116 14.6658C47.6249 14.8886 47.0756 15 46.4684 15C45.7361 15 45.0842 14.844 44.5126 14.5321C43.9411 14.2201 43.4946 13.7745 43.1731 13.1952C42.8516 12.6159 42.6908 11.9385 42.6908 11.1631C42.6908 10.3877 42.8471 9.71034 43.1597 9.13102C43.4812 8.55169 43.9277 8.10606 44.4992 7.79412C45.0708 7.48217 45.7272 7.3262 46.4684 7.3262C47.1917 7.3262 47.8347 7.47772 48.3973 7.78075C48.9599 8.08378 49.3975 8.51604 49.7101 9.07754C50.0316 9.63904 50.1923 10.2941 50.1923 11.0428ZM47.8481 10.4412C47.8481 10.049 47.7142 9.73708 47.4462 9.50535C47.1783 9.27362 46.8434 9.15775 46.4416 9.15775C46.0576 9.15775 45.7316 9.26916 45.4637 9.49198C45.2047 9.7148 45.044 10.0312 44.9815 10.4412H47.8481Z" fill="white"/>
<path d="M54.4415 15C53.7896 15 53.2091 14.8886 52.7001 14.6658C52.1911 14.443 51.7892 14.1399 51.4945 13.7567C51.1998 13.3645 51.0346 12.9278 50.9989 12.4465H53.2627C53.2895 12.705 53.4101 12.9144 53.6244 13.0749C53.8387 13.2353 54.1022 13.3155 54.4147 13.3155C54.7005 13.3155 54.9193 13.262 55.0711 13.1551C55.2319 13.0392 55.3122 12.8922 55.3122 12.7139C55.3122 12.5 55.2006 12.344 54.9774 12.246C54.7541 12.139 54.3924 12.0232 53.8923 11.8984C53.3565 11.7736 52.91 11.6444 52.5528 11.5107C52.1956 11.3681 51.8875 11.1497 51.6285 10.8556C51.3695 10.5526 51.24 10.1471 51.24 9.63904C51.24 9.21123 51.3561 8.82353 51.5883 8.47594C51.8294 8.11943 52.1777 7.83868 52.6331 7.63369C53.0975 7.4287 53.6467 7.3262 54.2808 7.3262C55.2185 7.3262 55.9552 7.55793 56.4911 8.02139C57.0358 8.48485 57.3484 9.09982 57.4287 9.86631H55.3122C55.2765 9.60784 55.1604 9.40285 54.964 9.25134C54.7764 9.09982 54.5264 9.02406 54.2138 9.02406C53.9459 9.02406 53.7405 9.07754 53.5976 9.18449C53.4547 9.28253 53.3833 9.42068 53.3833 9.59893C53.3833 9.81283 53.4949 9.97326 53.7182 10.0802C53.9504 10.1872 54.3076 10.2941 54.7898 10.4011C55.3435 10.5437 55.7945 10.6863 56.1428 10.8289C56.4911 10.9626 56.7947 11.1854 57.0537 11.4973C57.3216 11.8004 57.46 12.2103 57.4689 12.7273C57.4689 13.164 57.3439 13.5562 57.0938 13.9037C56.8527 14.2424 56.5 14.5098 56.0356 14.7059C55.5802 14.902 55.0488 15 54.4415 15Z" fill="white"/>
<path d="M63.0363 12.9545V14.893H61.8709C61.0404 14.893 60.3929 14.6925 59.9286 14.2914C59.4642 13.8815 59.232 13.2175 59.232 12.2995V9.33155H58.3211V7.43316H59.232V5.61497H61.5226V7.43316H63.0229V9.33155H61.5226V12.3262C61.5226 12.549 61.5762 12.7094 61.6834 12.8075C61.7906 12.9055 61.9692 12.9545 62.2192 12.9545H63.0363Z" fill="white"/>
<path d="M75.9514 7.59358L73.6607 14.893H72.723L70.7003 8.77005L68.6776 14.893H67.7265L65.4359 7.59358H66.3869L68.2087 13.9439L70.2583 7.59358H71.1959L73.2187 13.9572L75.0271 7.59358H75.9514Z" fill="white"/>
<path d="M83.4088 10.869C83.4088 11.1898 83.3998 11.4349 83.382 11.6043H77.3138C77.3406 12.1569 77.4746 12.6292 77.7157 13.0214C77.9568 13.4135 78.2738 13.7121 78.6668 13.9171C79.0597 14.1132 79.4883 14.2112 79.9527 14.2112C80.56 14.2112 81.069 14.0642 81.4798 13.7701C81.8995 13.4759 82.1764 13.0793 82.3103 12.5802H83.3016C83.123 13.2932 82.739 13.877 82.1496 14.3316C81.5691 14.7772 80.8368 15 79.9527 15C79.2651 15 78.6489 14.8485 78.1041 14.5455C77.5594 14.2335 77.1307 13.7968 76.8182 13.2353C76.5145 12.6649 76.3627 12.0009 76.3627 11.2433C76.3627 10.4857 76.5145 9.82175 76.8182 9.25134C77.1218 8.68093 77.546 8.24421 78.0907 7.94118C78.6355 7.63815 79.2562 7.48663 79.9527 7.48663C80.6493 7.48663 81.2566 7.63815 81.7745 7.94118C82.3014 8.24421 82.7033 8.65419 82.9801 9.17112C83.2659 9.67914 83.4088 10.2451 83.4088 10.869ZM82.4577 10.8422C82.4666 10.2986 82.355 9.83512 82.1228 9.45187C81.8995 9.06863 81.5914 8.77897 81.1985 8.58289C80.8056 8.38681 80.3769 8.28877 79.9125 8.28877C79.216 8.28877 78.6221 8.51159 78.1309 8.95722C77.6398 9.40285 77.3674 10.0312 77.3138 10.8422H82.4577Z" fill="white"/>
<path d="M85.6103 9.21123C85.8514 8.70321 86.2221 8.28877 86.7222 7.96791C87.2312 7.64706 87.8295 7.48663 88.5172 7.48663C89.1869 7.48663 89.7853 7.6426 90.3122 7.95455C90.8391 8.25758 91.2498 8.6943 91.5445 9.26471C91.8482 9.8262 92 10.4813 92 11.2299C92 11.9786 91.8482 12.6381 91.5445 13.2086C91.2498 13.779 90.8346 14.2201 90.2988 14.5321C89.7719 14.844 89.178 15 88.5172 15C87.8206 15 87.2178 14.844 86.7088 14.5321C86.2087 14.2112 85.8425 13.7968 85.6103 13.2888V14.893H84.686V5H85.6103V9.21123ZM91.0489 11.2299C91.0489 10.6239 90.9284 10.1025 90.6872 9.66578C90.455 9.22014 90.1336 8.88146 89.7228 8.64973C89.312 8.418 88.8476 8.30214 88.3296 8.30214C87.8295 8.30214 87.3696 8.42246 86.9499 8.6631C86.5391 8.90374 86.2131 9.24688 85.972 9.69251C85.7309 10.1381 85.6103 10.6551 85.6103 11.2433C85.6103 11.8316 85.7309 12.3485 85.972 12.7941C86.2131 13.2398 86.5391 13.5829 86.9499 13.8235C87.3696 14.0642 87.8295 14.1845 88.3296 14.1845C88.8476 14.1845 89.312 14.0686 89.7228 13.8369C90.1336 13.5963 90.455 13.2531 90.6872 12.8075C90.9284 12.3529 91.0489 11.8271 91.0489 11.2299Z" fill="white"/>
</svg>
